<svg width="7617" height="7477" viewBox="0 0 7617 7477" fill="none" xmlns="http://www.w3.org/2000/svg">
<path d="M7616.81 5030.51H4694.79V3339.59H7616.81V5030.51ZM4712.61 5012.68H7598.98V3357.42H4712.61V5012.68Z" fill="#E0E0E0"/>
<path d="M7014.01 4241.21H5086.14V4297.73H7014.01V4241.21Z" fill="#F0F0F0"/>
<path d="M7146.84 4451.95H5086.14V4513.64H7146.84V4451.95Z" fill="#F0F0F0"/>
<path d="M7146.84 4665.19H5086.14V4726.88H7146.84V4665.19Z" fill="#F0F0F0"/>
<path d="M5759.9 3935.08H5086.14V4081.82H5759.9V3935.08Z" fill="#F0F0F0"/>
<path d="M7607.9 3348.5H4704.23V3617.73H7607.9V3348.5Z" fill="#E0E0E0"/>
<path d="M7384.5 3577.43C7380.76 3573.86 7418.2 3528.76 7467.94 3476.7C7517.68 3424.63 7561.37 3385.23 7564.93 3388.62C7568.5 3392.01 7531.23 3437.29 7481.49 3489.53C7431.75 3541.77 7388.07 3581 7384.5 3577.43Z" fill="white"/>
<path d="M7565.29 3577.43C7561.72 3581 7518.22 3541.77 7468.3 3489.53C7418.38 3437.29 7381.11 3392.19 7384.86 3388.62C7388.6 3385.05 7431.93 3424.28 7481.85 3476.7C7531.77 3529.11 7568.68 3573.86 7565.29 3577.43Z" fill="white"/>
<path d="M4021.2 0H1117.54V1673.27H4021.2V0Z" fill="#E6E6E6"/>
<path d="M3427.49 892.887H1499.62V949.405H3427.49V892.887Z" fill="#F0F0F0"/>
<path d="M3560.31 1103.63H1499.62V1165.32H3560.31V1103.63Z" fill="#F0F0F0"/>
<path d="M3560.31 1316.87H1499.62V1378.55H3560.31V1316.87Z" fill="#F0F0F0"/>
<path d="M2173.38 586.759H1499.62V733.494H2173.38V586.759Z" fill="#F0F0F0"/>
<path d="M4021.2 0H1117.54V269.221H4021.2V0Z" fill="#E0E0E0"/>
<path d="M3787.99 227.679C3784.25 224.291 3821.69 179.005 3871.43 126.944C3921.18 74.8826 3964.86 35.4801 3968.42 39.0459C3971.99 42.6118 3934.73 87.7196 3884.98 139.781C3835.24 191.842 3791.56 230.888 3787.99 227.679Z" fill="white"/>
<path d="M3968.43 227.679C3964.86 231.245 3921.36 192.02 3871.43 139.781C3821.51 87.5413 3784.25 42.6117 3787.99 39.0459C3791.74 35.48 3835.06 74.7042 3884.98 126.944C3934.91 179.183 3972.17 224.291 3968.43 227.679Z" fill="white"/>
<path d="M2921.49 3108.34H0V1417.24H2921.49V3108.34ZM17.8292 3090.51H2903.66V1435.07H17.8292V3090.51Z" fill="#E0E0E0"/>
<path d="M2318.87 2319.04H390.994V2375.56H2318.87V2319.04Z" fill="#F0F0F0"/>
<path d="M2451.69 2529.79H390.994V2591.48H2451.69V2529.79Z" fill="#F0F0F0"/>
<path d="M2451.69 2743.02H390.994V2804.71H2451.69V2743.02Z" fill="#F0F0F0"/>
<path d="M1064.76 2012.92H390.994V2159.65H1064.76V2012.92Z" fill="#F0F0F0"/>
<path d="M2912.58 1426.16H8.91406V1695.38H2912.58V1426.16Z" fill="#E0E0E0"/>
<path d="M6293.17 3495.77H2864.62V6565.25H6293.17V3495.77Z" fill="#E6E6E6"/>
<path d="M3037.03 2528.89H351.236V5319.34H3037.03V2528.89Z" fill="#F0F0F0"/>
<path d="M3037.03 2528.89H351.236V2832.88H3037.03V2528.89Z" fill="#E0E0E0"/>
<path d="M573.032 2677.77C572.543 2688.79 568.827 2699.43 562.347 2708.36C555.867 2717.29 546.907 2724.12 536.578 2728.01C526.25 2731.89 515.009 2732.66 504.249 2730.21C493.49 2727.76 483.686 2722.21 476.054 2714.24C468.423 2706.27 463.299 2696.23 461.32 2685.38C459.341 2674.52 460.593 2663.32 464.921 2653.17C469.249 2643.02 476.462 2634.37 485.665 2628.28C494.868 2622.19 505.657 2618.94 516.691 2618.93C531.95 2619.31 546.441 2625.7 556.998 2636.73C567.554 2647.75 573.319 2662.51 573.032 2677.77V2677.77Z" fill="white"/>
<path d="M801.779 2677.77C801.324 2688.84 797.622 2699.54 791.134 2708.53C784.646 2717.52 775.659 2724.4 765.289 2728.32C754.92 2732.24 743.627 2733.02 732.816 2730.57C722.005 2728.12 712.153 2722.55 704.487 2714.54C696.82 2706.53 691.677 2696.45 689.697 2685.54C687.718 2674.64 688.99 2663.39 693.354 2653.2C697.719 2643.01 704.984 2634.33 714.244 2628.23C723.505 2622.14 734.353 2618.91 745.438 2618.93C760.697 2619.31 775.188 2625.7 785.745 2636.73C796.302 2647.75 802.066 2662.51 801.779 2677.77V2677.77Z" fill="white"/>
<path d="M1030.53 2677.77C1030.07 2688.84 1026.37 2699.54 1019.88 2708.53C1013.4 2717.52 1004.41 2724.4 994.039 2728.32C983.67 2732.24 972.377 2733.02 961.566 2730.57C950.755 2728.12 940.903 2722.55 933.237 2714.54C925.57 2706.53 920.427 2696.45 918.447 2685.54C916.468 2674.64 917.74 2663.39 922.104 2653.2C926.469 2643.01 933.734 2634.33 942.994 2628.23C952.255 2622.14 963.103 2618.91 974.188 2618.93C989.447 2619.31 1003.94 2625.7 1014.49 2636.73C1025.05 2647.75 1030.82 2662.51 1030.53 2677.77V2677.77Z" fill="white"/>
<path d="M7233.31 610.294H3804.75V4027.44H7233.31V610.294Z" fill="#F0F0F0"/>
<path d="M7233.31 610.294H3804.75V1010.56H7233.31V610.294Z" fill="#E0E0E0"/>
<path d="M4096.79 806.415C4096.17 820.966 4091.28 835.013 4082.73 846.81C4074.19 858.607 4062.37 867.635 4048.74 872.773C4035.12 877.912 4020.28 878.934 4006.07 875.713C3991.87 872.492 3978.92 865.17 3968.85 854.655C3958.77 844.141 3952 830.898 3949.38 816.57C3946.76 802.243 3948.41 787.461 3954.12 774.062C3959.83 760.663 3969.35 749.235 3981.49 741.199C3993.64 733.163 4007.88 728.871 4022.45 728.858C4042.58 729.326 4061.7 737.749 4075.64 752.285C4089.57 766.82 4097.18 786.283 4096.79 806.415V806.415Z" fill="white"/>
<path d="M4376.18 753.997C4386.06 764.731 4392.57 778.136 4394.89 792.542C4397.21 806.948 4395.24 821.718 4389.22 835.012C4383.21 848.306 4373.41 859.535 4361.06 867.302C4348.71 875.068 4334.34 879.027 4319.75 878.687C4305.17 878.347 4291 873.721 4279.02 865.387C4267.05 857.053 4257.79 845.379 4252.4 831.819C4247.01 818.259 4245.73 803.413 4248.72 789.131C4251.71 774.849 4258.83 761.762 4269.21 751.501C4283.74 737.673 4303.16 730.171 4323.21 730.639C4343.26 731.107 4362.31 739.507 4376.18 753.997V753.997Z" fill="white"/>
<path d="M4699.06 806.415C4698.44 820.966 4693.55 835.013 4685 846.81C4676.46 858.607 4664.64 867.635 4651.01 872.773C4637.39 877.912 4622.55 878.934 4608.34 875.713C4594.14 872.492 4581.19 865.17 4571.11 854.655C4561.04 844.141 4554.27 830.898 4551.65 816.57C4549.03 802.243 4550.68 787.461 4556.39 774.062C4562.1 760.663 4571.62 749.235 4583.76 741.199C4595.91 733.163 4610.15 728.871 4624.72 728.858C4644.85 729.326 4663.97 737.749 4677.9 752.285C4691.84 766.82 4699.45 786.283 4699.06 806.415V806.415Z" fill="white"/>
<path d="M6492.68 7471.86C6492.68 7474.36 5254.63 7476.5 3727.91 7476.5C2201.19 7476.5 962.6 7474.36 962.6 7471.86C962.6 7469.37 2200.48 7467.23 3727.91 7467.23C5255.34 7467.23 6492.68 7469.55 6492.68 7471.86Z" fill="#263238"/>
<path d="M5286.36 5289.21C5010.9 5096.83 4948.5 4739.72 4959.37 4418.61C4961.16 4365.12 4955.27 4308.43 4980.77 4261.54C5006.26 4214.65 5065.81 4182.38 5113.77 4204.84C5153.53 4223.56 5170.83 4269.92 5193.11 4308.25C5222.85 4359.31 5266.43 4400.91 5318.81 4428.24C5352.86 4446.07 5395.12 4456.77 5428.82 4438.22C5475.17 4412.73 5480.52 4349.08 5480.16 4295.59C5480.16 4196.1 5479.57 4096.74 5478.38 3997.49C5475.18 3944.19 5480.6 3890.73 5494.43 3839.16C5511.01 3788.53 5547.92 3741.64 5598.37 3727.37C5648.83 3713.11 5711.77 3742.53 5723.18 3794.59C5725.14 3816.64 5725.68 3838.79 5724.78 3860.91C5726.21 3883.2 5736.55 3907.63 5757.41 3914.4C5778.27 3921.18 5800.02 3905.67 5816.07 3889.98C5870.98 3836.49 5908.42 3766.78 5943.19 3697.96C5977.96 3629.13 6012.01 3558.35 6061.93 3499.69C6111.85 3441.04 6180.85 3394.5 6258.05 3390.05C6335.25 3385.59 6415.66 3433.01 6434.92 3507.9C6454.17 3582.78 6410.49 3659.27 6363.6 3720.06C6292.84 3810.31 6209.44 3889.87 6115.95 3956.3C6097.71 3966.26 6083.14 3981.83 6074.41 4000.7C6062.82 4036.35 6096.52 4072.01 6131.64 4083.24C6171.4 4096.44 6214.55 4092.34 6256.45 4097.33C6298.35 4102.32 6342.92 4120.51 6358.79 4159.73C6380.54 4214.29 6334.9 4271.34 6290.15 4308.78C6200.29 4383.67 6098.25 4442.58 5988.48 4482.98C5949.25 4497.24 5908.07 4509.9 5876.33 4537.35C5844.59 4564.81 5825.69 4612.77 5844.77 4650.39C5863.85 4688.01 5912.88 4699.96 5954.07 4692.29C5995.25 4684.62 6031.8 4662.52 6071.02 4647.72C6144.3 4620.08 6238.8 4625.07 6284.98 4688.37C6299.28 4710.17 6308.34 4734.99 6311.43 4760.89C6314.52 4786.78 6311.57 4813.04 6302.8 4837.6C6284.96 4886.47 6257.5 4931.28 6222.04 4969.36C6105.26 5108.88 5953.54 5214.89 5782.37 5276.55C5612.46 5335.39 5455.03 5351.44 5286.18 5289.57" fill="#09A085"/>
<path d="M6356.47 3434.08C6356.47 3434.08 6354.87 3435.87 6351.3 3439.08L6335.43 3453.16C6321.53 3465.64 6301.02 3483.83 6275.17 3507.9C6201.87 3575.95 6133.81 3649.44 6071.56 3727.73C6031.8 3777.12 5990.62 3833.1 5946.76 3893.9C5902.9 3954.7 5857.61 4020.31 5812.68 4090.02C5764.78 4163.53 5720.91 4239.6 5681.28 4317.88C5660.6 4358.71 5642.41 4401.32 5623.69 4444.82L5568.42 4577.65C5495.57 4744.96 5432.11 4916.21 5378.36 5090.59C5335.06 5233.28 5305.22 5379.7 5289.21 5527.95C5278.85 5627.99 5277.18 5728.75 5284.22 5829.08C5287.08 5864.74 5289.75 5892.02 5292.25 5910.56C5293.32 5919.47 5294.03 5926.61 5294.74 5931.78V5939.09C5293.97 5936.77 5293.44 5934.38 5293.14 5931.95C5292.25 5926.78 5291.18 5919.83 5289.75 5910.92C5286.54 5893.09 5283.15 5864.92 5279.94 5829.26C5271.34 5728.74 5271.94 5627.64 5281.73 5527.23C5296.74 5378.35 5325.93 5231.25 5368.91 5087.92C5422.21 4913.04 5485.49 4741.36 5558.44 4573.73L5615.13 4441.43C5633.85 4398.11 5652.22 4355.14 5673.08 4314.13C5712.99 4235.62 5757.21 4159.37 5805.55 4085.74C5851.19 4014.42 5897.19 3949.88 5940.52 3889.62C5983.84 3829.36 6025.74 3773.02 6065.32 3723.81C6128.2 3645.72 6197.18 3572.75 6271.6 3505.58C6297.99 3481.87 6319.03 3464.04 6333.29 3452.09L6349.87 3438.72C6351.91 3436.95 6354.12 3435.4 6356.47 3434.08V3434.08Z" fill="#263238"/>
<path d="M5675.4 4313.78C5672.88 4306.43 5671.15 4298.84 5670.22 4291.13C5667.37 4276.34 5664.16 4255.47 5660.42 4228.37C5652.75 4174.89 5644.91 4101.61 5636.53 4020.49C5628.15 3939.36 5618.7 3865.91 5610.85 3812.95C5606.75 3786.57 5603.19 3765.35 5600.69 3750.55C5598.74 3742.98 5597.73 3735.19 5597.66 3727.37C5600.73 3734.52 5602.94 3742 5604.26 3749.66C5608.18 3764.28 5612.64 3785.32 5617.63 3811.88C5627.79 3865.37 5637.78 3938.12 5646.16 4019.42C5654.53 4100.72 5661.67 4172.03 5667.19 4227.48C5669.87 4252.44 5672.19 4273.66 5673.97 4290.6C5675.35 4298.24 5675.83 4306.02 5675.4 4313.78V4313.78Z" fill="#263238"/>
<path d="M6361.46 4185.76C6352.79 4187.65 6343.95 4188.73 6335.07 4188.97C6317.25 4190.58 6291.93 4192.72 6260.55 4196.28C6197.79 4203.06 6111.5 4215.54 6016.82 4233.37C5922.15 4251.2 5837.11 4271.34 5775.95 4286.85C5745.46 4294.7 5720.86 4301.83 5704.63 4306.65C5695.97 4309.72 5687.01 4311.87 5677.89 4313.06C5686.13 4308.92 5694.72 4305.52 5703.56 4302.9C5720.32 4297.02 5744.57 4288.82 5774.88 4280.08C5835.68 4262.25 5920.72 4241.03 6015.75 4222.85C6096.25 4207.46 6177.48 4196.15 6259.12 4188.97C6290.68 4186.3 6316.18 4185.23 6334.01 4184.87C6343.16 4184.25 6352.36 4184.55 6361.46 4185.76Z" fill="#263238"/>
<path d="M5377.65 5075.44C5375.75 5072.86 5374.19 5070.04 5373.01 5067.06L5361.24 5042.28C5351.08 5020.7 5337.35 4988.79 5320.95 4949.74C5287.79 4871.3 5245.53 4761.47 5200.6 4639.52C5155.67 4517.56 5114.31 4407.74 5082.93 4328.4C5067.6 4289.88 5054.94 4258.33 5045.49 4234.79L5035.5 4209.3C5034.12 4206.36 5033.16 4203.23 5032.65 4200.03C5034.55 4202.61 5036.11 4205.42 5037.29 4208.41L5049.05 4233.19C5059.04 4254.76 5072.95 4286.68 5089.35 4325.72C5122.51 4404.17 5164.77 4514 5209.7 4635.95C5254.63 4757.9 5295.99 4867.73 5327.37 4947.07C5342.7 4985.58 5355.36 5017.14 5364.63 5040.67C5368.73 5050.84 5372.12 5058.5 5374.79 5066.17C5376.18 5069.11 5377.14 5072.23 5377.65 5075.44V5075.44Z" fill="#263238"/>
<path d="M6288.36 4781.79C6285.51 4783.43 6282.45 4784.69 6279.27 4785.54L6252.88 4794.45L6155.36 4826.01C6072.99 4852.75 5959.24 4890.91 5834.43 4932.98C5709.63 4975.06 5595.34 5012.5 5512.44 5037.46C5471.07 5050.12 5437.37 5059.75 5414.02 5066.17L5387.1 5073.12C5383.97 5074.12 5380.74 5074.77 5377.47 5075.08C5380.32 5073.44 5383.38 5072.19 5386.56 5071.34L5412.95 5062.42L5510.47 5030.87C5592.85 5004.12 5706.6 4965.97 5831.4 4923.89C5956.2 4881.81 6070.31 4844.37 6153.22 4819.41C6194.76 4806.75 6228.28 4797.13 6251.81 4790.71L6278.73 4783.75C6281.87 4782.76 6285.09 4782.1 6288.36 4781.79V4781.79Z" fill="#263238"/>
<path d="M4978.09 6120.23L3197.13 6112.03C3094.29 6111.46 2995.87 6070.1 2923.49 5997.02C2851.12 5923.95 2810.71 5825.13 2811.13 5722.28L2830.03 1257.67C2830.24 1206.72 2840.49 1156.3 2860.2 1109.31C2879.9 1062.32 2908.67 1019.67 2944.87 983.809C2981.07 947.944 3023.98 919.565 3071.15 900.292C3118.32 881.02 3168.82 871.234 3219.78 871.492L5000.56 879.693C5103.41 880.212 5201.85 921.53 5274.25 994.573C5346.66 1067.62 5387.12 1166.41 5386.74 1269.26L5367.84 5733.7C5367.63 5784.67 5357.38 5835.1 5337.68 5882.11C5317.98 5929.12 5289.21 5971.79 5253.02 6007.68C5216.83 6043.58 5173.92 6071.99 5126.75 6091.3C5079.58 6110.61 5029.07 6120.44 4978.09 6120.23V6120.23Z" fill="#455A64"/>
<path d="M4997.88 1033.2H4652.71C4641.45 1033.41 4630.34 1035.84 4620.01 1040.34C4609.69 1044.84 4600.35 1051.34 4592.53 1059.45C4584.72 1067.56 4578.58 1077.14 4574.46 1087.62C4570.35 1098.11 4568.34 1109.3 4568.56 1120.57V1183.15C4568.77 1194.4 4566.76 1205.59 4562.64 1216.06C4558.52 1226.54 4552.38 1236.1 4544.57 1244.2C4536.75 1252.3 4527.41 1258.77 4517.09 1263.26C4506.76 1267.74 4495.66 1270.15 4484.4 1270.33L3811.53 1267.3C3788.76 1266.69 3767.17 1257.08 3751.49 1240.56C3735.82 1224.05 3727.33 1201.99 3727.91 1179.22V1116.64C3728.48 1093.91 3720.02 1071.87 3704.38 1055.37C3688.74 1038.86 3667.2 1029.22 3644.47 1028.57H3523.05L3220.85 1027.14C3148.96 1026.71 3079.84 1054.79 3028.62 1105.21C2977.39 1155.64 2948.23 1224.31 2947.52 1296.18L2929.69 5654C2929.53 5689.66 2936.39 5725 2949.89 5758.01C2963.38 5791.01 2983.24 5821.04 3008.34 5846.37C3033.44 5871.7 3063.28 5891.84 3096.17 5905.64C3129.05 5919.44 3164.33 5926.62 3199.99 5926.79L4977.2 5934.99C5012.88 5935.15 5048.25 5928.29 5081.28 5914.78C5114.31 5901.28 5144.35 5881.4 5169.7 5856.29C5195.05 5831.17 5215.2 5801.31 5229.01 5768.4C5242.81 5735.5 5250 5700.2 5250.17 5664.52L5267.99 1306.7C5268.42 1234.62 5240.21 1165.32 5189.56 1114.04C5138.91 1062.75 5069.96 1033.67 4997.88 1033.2V1033.2Z" fill="white"/>
<path d="M4758.79 5353.58L3437.29 5347.87C3423.57 5347.87 3412.51 5332.89 3412.69 5314.71L3414.12 4969C3414.12 4951.17 3425.35 4935.84 3439.08 4935.84L4760.58 4941.9C4768.19 4943.22 4774.99 4947.42 4779.58 4953.63C4784.16 4959.84 4786.17 4967.58 4785.18 4975.24L4783.93 5320.59C4783.93 5338.96 4772.52 5353.75 4758.79 5353.58Z" fill="#09A085"/>
<path d="M3846.94 5195.32C3839.59 5195.32 3832.48 5194.27 3825.58 5192.19C3818.78 5190.1 3813.39 5187.34 3809.4 5183.89L3815.52 5170.16C3819.42 5173.24 3824.18 5175.78 3829.8 5177.77C3835.51 5179.68 3841.22 5180.63 3846.94 5180.63C3854.01 5180.63 3859.27 5179.49 3862.71 5177.23C3866.25 5174.96 3868.02 5171.97 3868.02 5168.25C3868.02 5165.53 3867.02 5163.31 3865.02 5161.59C3863.12 5159.77 3860.67 5158.37 3857.68 5157.37C3854.69 5156.37 3850.61 5155.24 3845.44 5153.97C3838.19 5152.25 3832.29 5150.53 3827.76 5148.8C3823.32 5147.08 3819.46 5144.41 3816.2 5140.78C3813.03 5137.06 3811.44 5132.08 3811.44 5125.82C3811.44 5120.56 3812.85 5115.8 3815.66 5111.54C3818.56 5107.19 3822.86 5103.74 3828.58 5101.2C3834.38 5098.66 3841.45 5097.4 3849.79 5097.4C3855.6 5097.4 3861.31 5098.12 3866.93 5099.57C3872.55 5101.02 3877.4 5103.11 3881.48 5105.83L3875.9 5119.56C3871.73 5117.12 3867.38 5115.26 3862.85 5113.99C3858.32 5112.72 3853.92 5112.08 3849.66 5112.08C3842.68 5112.08 3837.46 5113.26 3834.02 5115.62C3830.66 5117.98 3828.98 5121.1 3828.98 5125C3828.98 5127.72 3829.94 5129.94 3831.84 5131.67C3833.84 5133.39 3836.33 5134.75 3839.32 5135.75C3842.31 5136.74 3846.39 5137.88 3851.56 5139.15C3858.63 5140.78 3864.44 5142.5 3868.97 5144.32C3873.5 5146.04 3877.36 5148.71 3880.53 5152.34C3883.79 5155.97 3885.42 5160.86 3885.42 5167.03C3885.42 5172.29 3883.97 5177.05 3881.07 5181.31C3878.26 5185.57 3873.96 5188.97 3868.15 5191.51C3862.35 5194.05 3855.28 5195.32 3846.94 5195.32ZM3902.96 5098.76H3920.64V5193.96H3902.96V5098.76ZM4011.39 5145.27H4028.12V5183.21C4023.23 5187.11 4017.51 5190.1 4010.99 5192.19C4004.46 5194.27 3997.75 5195.32 3990.86 5195.32C3981.16 5195.32 3972.41 5193.23 3964.61 5189.06C3956.81 5184.8 3950.69 5178.95 3946.25 5171.52C3941.81 5164.08 3939.59 5155.69 3939.59 5146.36C3939.59 5137.02 3941.81 5128.63 3946.25 5121.2C3950.69 5113.76 3956.81 5107.96 3964.61 5103.79C3972.5 5099.53 3981.34 5097.4 3991.13 5097.4C3999.11 5097.4 4006.36 5098.71 4012.89 5101.34C4019.42 5103.97 4024.9 5107.82 4029.35 5112.9L4018.19 5123.78C4010.94 5116.53 4002.19 5112.9 3991.95 5112.9C3985.24 5112.9 3979.25 5114.3 3973.99 5117.12C3968.83 5119.93 3964.75 5123.87 3961.75 5128.95C3958.85 5134.02 3957.4 5139.83 3957.4 5146.36C3957.4 5152.7 3958.85 5158.41 3961.75 5163.49C3964.75 5168.57 3968.83 5172.56 3973.99 5175.46C3979.25 5178.36 3985.19 5179.81 3991.81 5179.81C3999.24 5179.81 4005.77 5178.18 4011.39 5174.92V5145.27ZM4136.03 5098.76V5193.96H4121.48L4068.98 5129.49V5193.96H4051.44V5098.76H4065.99L4118.49 5163.22V5098.76H4136.03ZM4240.06 5195.32C4226.92 5195.32 4216.67 5191.64 4209.33 5184.3C4201.98 5176.86 4198.31 5166.26 4198.31 5152.48V5098.76H4215.99V5151.8C4215.99 5170.47 4224.06 5179.81 4240.2 5179.81C4256.25 5179.81 4264.27 5170.47 4264.27 5151.8V5098.76H4281.68V5152.48C4281.68 5166.26 4278.01 5176.86 4270.66 5184.3C4263.41 5191.64 4253.21 5195.32 4240.06 5195.32ZM4345.61 5098.76C4353.86 5098.76 4361.02 5100.12 4367.1 5102.84C4373.26 5105.56 4377.98 5109.45 4381.24 5114.53C4384.5 5119.61 4386.14 5125.64 4386.14 5132.62C4386.14 5139.51 4384.5 5145.54 4381.24 5150.71C4377.98 5155.78 4373.26 5159.68 4367.1 5162.4C4361.02 5165.12 4353.86 5166.48 4345.61 5166.48H4324.12V5193.96H4306.44V5098.76H4345.61ZM4344.79 5151.52C4352.5 5151.52 4358.35 5149.89 4362.34 5146.63C4366.33 5143.36 4368.32 5138.69 4368.32 5132.62C4368.32 5126.54 4366.33 5121.88 4362.34 5118.61C4358.35 5115.35 4352.5 5113.72 4344.79 5113.72H4324.12V5151.52H4344.79Z" fill="#E8E8E3"/>
<path d="M3700.88 2314.23L3242.32 2312.15L3241.94 2396.31L3700.5 2398.39L3700.88 2314.23Z" fill="#09A085"/>
<path opacity="0.1" d="M3700.88 2314.23L3242.32 2312.15L3241.94 2396.31L3700.5 2398.39L3700.88 2314.23Z" fill="black"/>
<path d="M5045.13 2830.92C5048.73 2830.56 5052.27 2829.72 5055.65 2828.43C5060.59 2826.5 5064.88 2823.21 5068.03 2818.96C5071.19 2814.7 5073.07 2809.64 5073.48 2804.36C5073.48 2776.01 5073.48 2734.64 5073.48 2681.51C5073.48 2654.95 5073.48 2625.17 5073.48 2592.37C5073.48 2584.34 5073.48 2575.96 5073.48 2567.58C5074.64 2559.45 5072.87 2551.17 5068.49 2544.23C5066.04 2540.9 5062.84 2538.18 5059.16 2536.29C5055.48 2534.41 5051.41 2533.4 5047.27 2533.35H5019.46H4761.83L3270.59 2527.83C3266.78 2527.76 3263 2528.62 3259.59 2530.33C3256.17 2532.03 3253.22 2534.54 3250.98 2537.63C3246.68 2544.61 3245.03 2552.9 3246.34 2560.99C3246.34 2578.82 3246.34 2596.65 3246.34 2614.48C3246.34 2650.13 3246.34 2685.79 3246.34 2721.45C3246.34 2739.28 3246.34 2757.11 3246.34 2774.94C3245.61 2783.24 3245.61 2791.59 3246.34 2799.9C3247.28 2803.46 3249.02 2806.76 3251.43 2809.54C3253.84 2812.32 3256.86 2814.51 3260.25 2815.95C3263.76 2817.34 3267.53 2818.01 3271.31 2817.91H3362.06L3758.04 2820.05L4428.42 2824.15L4880.39 2827.71L5003.23 2829.14H5035.15C5042.46 2829.14 5046.03 2829.14 5046.03 2829.14H5035.15H5003.23H4880.39H4428.42L3758.04 2827L3362.06 2825.39H3271.31C3266.31 2825.6 3261.33 2824.75 3256.69 2822.9C3251.99 2820.9 3247.82 2817.85 3244.48 2813.98C3241.14 2810.12 3238.73 2805.55 3237.43 2800.61C3236.4 2795.93 3236.04 2791.13 3236.36 2786.35V2773.15C3236.36 2755.33 3236.36 2737.5 3236.36 2719.67C3236.36 2684.01 3236.36 2648.35 3236.36 2612.69C3236.36 2594.86 3236.36 2577.03 3236.36 2559.2C3236.02 2554.46 3236.02 2549.69 3236.36 2544.94C3237.03 2539.7 3239.06 2534.72 3242.24 2530.5C3245.32 2526.2 3249.39 2522.7 3254.11 2520.31C3258.83 2517.92 3264.06 2516.7 3269.34 2516.77L4760.58 2524.97L5018.21 2526.76H5046.03C5050.93 2526.76 5055.75 2527.94 5060.1 2530.21C5064.44 2532.48 5068.18 2535.75 5070.99 2539.77C5076.01 2547.52 5078.04 2556.84 5076.69 2565.98C5076.69 2574.36 5076.69 2582.74 5076.69 2590.76C5076.69 2623.21 5076.69 2652.99 5076.69 2679.91C5076.69 2733.4 5075.44 2774.4 5075.09 2802.93C5074.65 2808.41 5072.66 2813.66 5069.34 2818.05C5066.02 2822.44 5061.52 2825.79 5056.37 2827.71C5052.99 2829.8 5049.1 2830.91 5045.13 2830.92V2830.92Z" fill="#E0E0E0"/>
<path d="M4218.75 2617.33H3380.06V2695.95H4218.75V2617.33Z" fill="#09A085"/>
<path opacity="0.2" d="M4218.75 2617.33H3380.06V2695.95H4218.75V2617.33Z" fill="white"/>
<path d="M3697.75 3081.94L3239.19 3079.86L3238.81 3164.01L3697.37 3166.09L3697.75 3081.94Z" fill="#09A085"/>
<path opacity="0.1" d="M3697.75 3081.94L3239.19 3079.86L3238.81 3164.01L3697.37 3166.09L3697.75 3081.94Z" fill="black"/>
<path d="M5033.54 3598.65C5037.14 3598.2 5040.72 3597.55 5044.24 3596.69C5049.22 3595.1 5053.8 3592.47 5057.68 3588.96C5061.55 3585.45 5064.63 3581.16 5066.7 3576.36C5069.51 3569.16 5070.61 3561.41 5069.91 3553.72C5069.91 3545.16 5069.91 3535.89 5069.91 3525.55C5069.91 3504.87 5069.91 3481.33 5069.91 3454.23V3341.02C5070.77 3332.82 5068.95 3324.57 5064.74 3317.48C5060.35 3310.21 5053.43 3304.82 5045.31 3302.33C5036.43 3300.74 5027.39 3300.26 5018.39 3300.9H4761.83L3275.76 3295.37C3267.77 3295.39 3260.05 3298.31 3254.05 3303.59C3248.05 3308.87 3244.17 3316.15 3243.13 3324.08C3243.13 3341.02 3243.13 3359.74 3243.13 3377.57C3243.13 3413.22 3243.13 3448.88 3243.13 3484.54C3243.13 3502.37 3243.13 3520.2 3243.13 3538.03C3242.47 3546.36 3242.83 3554.74 3244.2 3562.99C3246.43 3570.22 3251.01 3576.49 3257.22 3580.82C3263.8 3585 3271.54 3586.99 3279.33 3586.52H3304.11H3355.64L3750.2 3588.48L4418.26 3592.59L4868.62 3596.15L4991.11 3597.58H5023.02H5033.72H5023.02H4991.11H4868.62H4418.26L3749.84 3596.86L3355.28 3595.44H3277.72C3268.08 3596.01 3258.51 3593.45 3250.44 3588.13C3242.33 3582.51 3236.41 3574.26 3233.68 3564.77C3232.09 3555.71 3231.61 3546.49 3232.26 3537.31C3232.26 3519.49 3232.26 3501.66 3232.26 3483.83C3232.26 3448.17 3232.26 3412.51 3232.26 3376.85C3232.26 3359.02 3232.26 3341.19 3232.26 3323.36C3233.56 3313.17 3238.53 3303.8 3246.24 3297C3253.96 3290.21 3263.88 3286.46 3274.16 3286.46L4760.22 3294.66L5016.78 3296.62C5026.34 3296.03 5035.93 3296.69 5045.31 3298.58C5054.57 3301.61 5062.39 3307.96 5067.24 3316.41C5071.85 3324.26 5073.85 3333.38 5072.94 3342.44C5072.94 3350.82 5072.94 3359.02 5072.94 3367.22C5072.94 3399.5 5072.94 3429.09 5072.94 3456.37C5072.94 3483.65 5072.94 3506.65 5072.94 3527.69C5072.94 3537.85 5072.94 3547.3 5072.94 3556.04C5073.59 3564.01 5072.31 3572.02 5069.2 3579.39C5066.89 3584.31 5063.54 3588.67 5059.38 3592.18C5055.23 3595.69 5050.37 3598.26 5045.13 3599.72C5041.24 3600.04 5037.31 3599.68 5033.54 3598.65V3598.65Z" fill="#E0E0E0"/>
<path d="M3694.3 3882.98L3235.74 3880.9L3235.36 3965.05L3693.92 3967.13L3694.3 3882.98Z" fill="#09A085"/>
<path opacity="0.1" d="M3694.3 3882.98L3235.74 3880.9L3235.36 3965.05L3693.92 3967.13L3694.3 3882.98Z" fill="black"/>
<path d="M5029.98 4399.36C5033.58 4398.93 5037.15 4398.28 5040.67 4397.4C5045.63 4395.82 5050.2 4393.21 5054.07 4389.74C5057.94 4386.26 5061.04 4382.01 5063.14 4377.25C5065.93 4370.05 5067.03 4362.3 5066.35 4354.61C5066.35 4345.87 5066.35 4336.78 5066.35 4326.26C5066.35 4305.75 5066.35 4282.04 5066.35 4254.94V4141.72C5067.2 4133.53 5065.39 4125.28 5061.18 4118.19C5056.68 4111.06 5049.79 4105.75 5041.74 4103.21C5032.87 4101.57 5023.83 4101.03 5014.82 4101.61H4758.26L3272.2 4096.08C3264.2 4096.1 3256.49 4099.02 3250.49 4104.3C3244.48 4109.58 3240.61 4116.86 3239.57 4124.79C3239.57 4142.62 3239.57 4160.45 3239.57 4178.27C3239.57 4213.93 3239.57 4249.59 3239.57 4285.25C3239.57 4303.08 3239.57 4320.91 3239.57 4338.74C3238.9 4347.01 3239.26 4355.33 3240.64 4363.52C3242.77 4370.79 3247.38 4377.1 3253.65 4381.35C3260.2 4385.62 3267.97 4387.63 3275.76 4387.05H3353.32L3747.88 4389.19L4415.94 4393.29L4866.3 4396.86L4988.79 4398.29H5020.71C5027.84 4398.29 5031.4 4398.29 5031.4 4398.29C5031.4 4398.29 5027.84 4398.29 5020.71 4398.29H4988.79H4866.3H4415.94L3747.88 4396.33L3353.32 4394.72H3275.76C3266.11 4395.37 3256.52 4392.8 3248.48 4387.41C3240.37 4381.79 3234.45 4373.54 3231.72 4364.06C3230.13 4355 3229.65 4345.77 3230.3 4336.6C3230.3 4318.77 3230.3 4300.94 3230.3 4283.11C3230.3 4247.45 3230.3 4211.79 3230.3 4176.14C3230.3 4158.31 3230.3 4140.48 3230.3 4121.76C3231.56 4111.58 3236.49 4102.21 3244.18 4095.41C3251.86 4088.61 3261.76 4084.86 3272.02 4084.85L4758.08 4093.05L5014.64 4095.01C5024.2 4094.43 5033.79 4095.09 5043.17 4096.97C5052.43 4100 5060.25 4106.35 5065.1 4114.8C5069.71 4122.66 5071.71 4131.77 5070.81 4140.83C5070.81 4149.21 5070.81 4157.59 5070.81 4165.62C5070.81 4197.89 5070.81 4227.48 5070.81 4254.76C5070.81 4282.04 5070.81 4305.04 5070.81 4326.08C5070.81 4336.24 5070.81 4345.69 5070.81 4354.43C5071.49 4362.4 5070.2 4370.42 5067.06 4377.78C5064.75 4382.7 5061.4 4387.07 5057.25 4390.57C5053.09 4394.08 5048.23 4396.65 5042.99 4398.11C5038.81 4399.54 5034.35 4399.97 5029.98 4399.36V4399.36Z" fill="#E0E0E0"/>
<path d="M4200.85 3407.28L3362.17 3403.48L3361.81 3482.1L4200.49 3485.91L4200.85 3407.28Z" fill="#09A085"/>
<path opacity="0.2" d="M4200.85 3407.28L3362.17 3403.48L3361.81 3482.1L4200.49 3485.91L4200.85 3407.28Z" fill="white"/>
<path d="M3438.01 4253.87C3437.48 4261.04 3434.86 4267.9 3430.47 4273.6C3426.08 4279.29 3420.12 4283.58 3413.32 4285.92C3406.52 4288.25 3399.18 4288.54 3392.22 4286.75C3385.25 4284.96 3378.97 4281.16 3374.14 4275.83C3369.32 4270.5 3366.17 4263.87 3365.07 4256.76C3363.98 4249.65 3365 4242.38 3368 4235.84C3371.01 4229.31 3375.86 4223.8 3381.97 4220C3388.07 4216.2 3395.16 4214.28 3402.35 4214.47C3412.28 4215.02 3421.6 4219.47 3428.27 4226.85C3434.95 4234.22 3438.44 4243.93 3438.01 4253.87V4253.87Z" fill="#09A085"/>
<path d="M3551.58 4254.41C3551.93 4259.43 3551.24 4264.48 3549.56 4269.23C3547.88 4273.98 3545.24 4278.33 3541.8 4282.01C3538.36 4285.7 3534.2 4288.64 3529.58 4290.65C3524.96 4292.65 3519.98 4293.69 3514.94 4293.69C3509.9 4293.69 3504.92 4292.65 3500.29 4290.65C3495.67 4288.64 3491.52 4285.7 3488.08 4282.01C3484.64 4278.33 3482 4273.98 3480.32 4269.23C3478.64 4264.48 3477.95 4259.43 3478.3 4254.41C3477.95 4249.38 3478.64 4244.33 3480.32 4239.59C3482 4234.84 3484.64 4230.48 3488.08 4226.8C3491.52 4223.11 3495.67 4220.18 3500.29 4218.17C3504.92 4216.16 3509.9 4215.12 3514.94 4215.12C3519.98 4215.12 3524.96 4216.16 3529.58 4218.17C3534.2 4220.18 3538.36 4223.11 3541.8 4226.8C3545.24 4230.48 3547.88 4234.84 3549.56 4239.59C3551.24 4244.33 3551.93 4249.38 3551.58 4254.41V4254.41Z" fill="#09A085"/>
<path d="M3665.33 4254.94C3664.8 4262.11 3662.18 4268.97 3657.8 4274.67C3653.41 4280.36 3647.44 4284.65 3640.64 4286.99C3633.84 4289.32 3626.51 4289.61 3619.54 4287.82C3612.58 4286.03 3606.29 4282.23 3601.47 4276.9C3596.64 4271.57 3593.49 4264.93 3592.4 4257.83C3591.31 4250.72 3592.33 4243.45 3595.33 4236.91C3598.33 4230.38 3603.19 4224.87 3609.29 4221.07C3615.4 4217.27 3622.48 4215.35 3629.67 4215.54C3639.59 4216.14 3648.88 4220.6 3655.54 4227.96C3662.21 4235.33 3665.72 4245.01 3665.33 4254.94Z" fill="#09A085"/>
<path d="M3778.9 4255.48C3778.37 4262.65 3775.75 4269.51 3771.37 4275.2C3766.98 4280.9 3761.01 4285.18 3754.21 4287.52C3747.41 4289.86 3740.08 4290.15 3733.11 4288.36C3726.15 4286.56 3719.86 4282.76 3715.04 4277.43C3710.21 4272.1 3707.06 4265.47 3705.97 4258.36C3704.88 4251.25 3705.9 4243.98 3708.9 4237.45C3711.9 4230.91 3716.76 4225.41 3722.86 4221.61C3728.97 4217.81 3736.05 4215.88 3743.24 4216.07C3753.16 4216.67 3762.45 4221.13 3769.11 4228.5C3775.78 4235.86 3779.29 4245.55 3778.9 4255.48Z" fill="#09A085"/>
<path d="M3892.47 4255.83C3891.98 4263.01 3889.39 4269.89 3885.02 4275.61C3880.65 4281.34 3874.69 4285.65 3867.89 4288.01C3861.1 4290.38 3853.75 4290.69 3846.77 4288.92C3839.8 4287.14 3833.5 4283.36 3828.65 4278.03C3823.81 4272.7 3820.64 4266.07 3819.54 4258.95C3818.43 4251.84 3819.44 4244.56 3822.44 4238.02C3825.44 4231.47 3830.3 4225.95 3836.41 4222.15C3842.52 4218.34 3849.62 4216.41 3856.81 4216.61C3866.7 4217.21 3875.96 4221.64 3882.62 4228.97C3889.28 4236.3 3892.82 4245.93 3892.47 4255.83Z" fill="#09A085"/>
<path d="M4006.22 4256.37C4005.74 4263.51 4003.17 4270.36 3998.84 4276.07C3994.52 4281.77 3988.61 4286.09 3981.86 4288.48C3975.12 4290.88 3967.81 4291.25 3960.86 4289.55C3953.9 4287.85 3947.59 4284.15 3942.71 4278.91C3937.83 4273.67 3934.58 4267.12 3933.38 4260.06C3932.17 4253 3933.05 4245.74 3935.92 4239.18C3938.78 4232.61 3943.51 4227.03 3949.5 4223.12C3955.5 4219.2 3962.51 4217.12 3969.67 4217.14C3979.72 4217.51 3989.2 4221.85 3996.05 4229.2C4002.9 4236.56 4006.56 4246.32 4006.22 4256.37V4256.37Z" fill="#09A085"/>
<path d="M4119.8 4256.9C4120.15 4261.93 4119.46 4266.97 4117.78 4271.72C4116.1 4276.47 4113.45 4280.82 4110.02 4284.51C4106.58 4288.19 4102.42 4291.13 4097.8 4293.14C4093.18 4295.15 4088.2 4296.19 4083.16 4296.19C4078.12 4296.19 4073.13 4295.15 4068.51 4293.14C4063.89 4291.13 4059.73 4288.19 4056.3 4284.51C4052.86 4280.82 4050.22 4276.47 4048.54 4271.72C4046.86 4266.97 4046.17 4261.93 4046.52 4256.9C4046.17 4251.88 4046.86 4246.83 4048.54 4242.08C4050.22 4237.33 4052.86 4232.98 4056.3 4229.29C4059.73 4225.61 4063.89 4222.67 4068.51 4220.66C4073.13 4218.65 4078.12 4217.62 4083.16 4217.62C4088.2 4217.62 4093.18 4218.65 4097.8 4220.66C4102.42 4222.67 4106.58 4225.61 4110.02 4229.29C4113.45 4232.98 4116.1 4237.33 4117.78 4242.08C4119.46 4246.83 4120.15 4251.88 4119.8 4256.9Z" fill="#09A085"/>
<path d="M4233.37 4257.44C4232.88 4264.58 4230.32 4271.43 4225.99 4277.14C4221.66 4282.84 4215.76 4287.16 4209.01 4289.55C4202.26 4291.95 4194.96 4292.32 4188 4290.62C4181.04 4288.92 4174.74 4285.22 4169.85 4279.98C4164.97 4274.74 4161.73 4268.19 4160.52 4261.13C4159.31 4254.07 4160.2 4246.81 4163.06 4240.25C4165.93 4233.68 4170.65 4228.1 4176.65 4224.19C4182.64 4220.27 4189.66 4218.19 4196.82 4218.21C4206.86 4218.58 4216.35 4222.92 4223.2 4230.27C4230.05 4237.63 4233.7 4247.39 4233.37 4257.44V4257.44Z" fill="#09A085"/>
<path d="M4346.94 4257.97C4346.45 4265.15 4343.86 4272.03 4339.49 4277.75C4335.12 4283.48 4329.16 4287.79 4322.36 4290.15C4315.56 4292.52 4308.22 4292.83 4301.24 4291.06C4294.27 4289.28 4287.96 4285.5 4283.12 4280.17C4278.28 4274.84 4275.11 4268.21 4274 4261.09C4272.9 4253.98 4273.91 4246.7 4276.91 4240.16C4279.91 4233.61 4284.77 4228.09 4290.88 4224.29C4296.99 4220.48 4304.09 4218.55 4311.28 4218.75C4321.17 4219.35 4330.43 4223.78 4337.09 4231.11C4343.75 4238.44 4347.28 4248.07 4346.94 4257.97V4257.97Z" fill="#09A085"/>
<g opacity="0.2">
<path d="M3438.01 4253.87C3437.48 4261.04 3434.86 4267.9 3430.47 4273.6C3426.08 4279.29 3420.12 4283.58 3413.32 4285.92C3406.52 4288.25 3399.18 4288.54 3392.22 4286.75C3385.25 4284.96 3378.97 4281.16 3374.14 4275.83C3369.32 4270.5 3366.17 4263.87 3365.07 4256.76C3363.98 4249.65 3365 4242.38 3368 4235.84C3371.01 4229.31 3375.86 4223.8 3381.97 4220C3388.07 4216.2 3395.16 4214.28 3402.35 4214.47C3412.28 4215.02 3421.6 4219.47 3428.27 4226.85C3434.95 4234.22 3438.44 4243.93 3438.01 4253.87V4253.87Z" fill="white"/>
<path d="M3551.58 4254.41C3551.93 4259.43 3551.24 4264.48 3549.56 4269.23C3547.88 4273.98 3545.24 4278.33 3541.8 4282.01C3538.36 4285.7 3534.2 4288.64 3529.58 4290.65C3524.96 4292.65 3519.98 4293.69 3514.94 4293.69C3509.9 4293.69 3504.92 4292.65 3500.29 4290.65C3495.67 4288.64 3491.52 4285.7 3488.08 4282.01C3484.64 4278.33 3482 4273.98 3480.32 4269.23C3478.64 4264.48 3477.95 4259.43 3478.3 4254.41C3477.95 4249.38 3478.64 4244.33 3480.32 4239.59C3482 4234.84 3484.64 4230.48 3488.08 4226.8C3491.52 4223.11 3495.67 4220.18 3500.29 4218.17C3504.92 4216.16 3509.9 4215.12 3514.94 4215.12C3519.98 4215.12 3524.96 4216.16 3529.58 4218.17C3534.2 4220.18 3538.36 4223.11 3541.8 4226.8C3545.24 4230.48 3547.88 4234.84 3549.56 4239.59C3551.24 4244.33 3551.93 4249.38 3551.58 4254.41V4254.41Z" fill="white"/>
<path d="M3665.33 4254.94C3664.8 4262.11 3662.18 4268.97 3657.8 4274.67C3653.41 4280.36 3647.44 4284.65 3640.64 4286.99C3633.84 4289.32 3626.51 4289.61 3619.54 4287.82C3612.58 4286.03 3606.29 4282.23 3601.47 4276.9C3596.64 4271.57 3593.49 4264.93 3592.4 4257.83C3591.31 4250.72 3592.33 4243.45 3595.33 4236.91C3598.33 4230.38 3603.19 4224.87 3609.29 4221.07C3615.4 4217.27 3622.48 4215.35 3629.67 4215.54C3639.59 4216.14 3648.88 4220.6 3655.54 4227.96C3662.21 4235.33 3665.72 4245.01 3665.33 4254.94Z" fill="white"/>
<path d="M3778.9 4255.48C3778.37 4262.65 3775.75 4269.51 3771.37 4275.2C3766.98 4280.9 3761.01 4285.18 3754.21 4287.52C3747.41 4289.86 3740.08 4290.15 3733.11 4288.36C3726.15 4286.56 3719.86 4282.76 3715.04 4277.43C3710.21 4272.1 3707.06 4265.47 3705.97 4258.36C3704.88 4251.25 3705.9 4243.98 3708.9 4237.45C3711.9 4230.91 3716.76 4225.41 3722.86 4221.61C3728.97 4217.81 3736.05 4215.88 3743.24 4216.07C3753.16 4216.67 3762.45 4221.13 3769.11 4228.5C3775.78 4235.86 3779.29 4245.55 3778.9 4255.48Z" fill="white"/>
<path d="M3892.47 4255.83C3891.98 4263.01 3889.39 4269.89 3885.02 4275.62C3880.65 4281.34 3874.69 4285.65 3867.89 4288.01C3861.1 4290.38 3853.75 4290.69 3846.77 4288.92C3839.8 4287.14 3833.5 4283.36 3828.65 4278.03C3823.81 4272.7 3820.64 4266.07 3819.54 4258.96C3818.43 4251.84 3819.44 4244.56 3822.44 4238.02C3825.44 4231.47 3830.3 4225.95 3836.41 4222.15C3842.52 4218.34 3849.62 4216.42 3856.81 4216.61C3866.7 4217.21 3875.96 4221.64 3882.62 4228.97C3889.28 4236.3 3892.82 4245.94 3892.47 4255.83Z" fill="white"/>
<path d="M4006.22 4256.37C4005.74 4263.51 4003.17 4270.36 3998.84 4276.07C3994.52 4281.77 3988.61 4286.09 3981.86 4288.48C3975.12 4290.88 3967.81 4291.25 3960.86 4289.55C3953.9 4287.85 3947.59 4284.15 3942.71 4278.91C3937.83 4273.67 3934.58 4267.12 3933.38 4260.06C3932.17 4253 3933.05 4245.74 3935.92 4239.18C3938.78 4232.61 3943.51 4227.03 3949.5 4223.12C3955.5 4219.2 3962.51 4217.12 3969.67 4217.14C3979.72 4217.51 3989.2 4221.85 3996.05 4229.2C4002.9 4236.56 4006.56 4246.32 4006.22 4256.37V4256.37Z" fill="white"/>
<path d="M4119.8 4256.9C4120.15 4261.93 4119.46 4266.97 4117.78 4271.72C4116.1 4276.47 4113.45 4280.82 4110.02 4284.51C4106.58 4288.19 4102.42 4291.13 4097.8 4293.14C4093.18 4295.15 4088.2 4296.19 4083.16 4296.19C4078.12 4296.19 4073.13 4295.15 4068.51 4293.14C4063.89 4291.13 4059.73 4288.19 4056.3 4284.51C4052.86 4280.82 4050.22 4276.47 4048.54 4271.72C4046.86 4266.97 4046.17 4261.93 4046.52 4256.9C4046.17 4251.88 4046.86 4246.83 4048.54 4242.08C4050.22 4237.33 4052.86 4232.98 4056.3 4229.29C4059.73 4225.61 4063.89 4222.67 4068.51 4220.66C4073.13 4218.65 4078.12 4217.62 4083.16 4217.62C4088.2 4217.62 4093.18 4218.65 4097.8 4220.66C4102.42 4222.67 4106.58 4225.61 4110.02 4229.29C4113.45 4232.98 4116.1 4237.33 4117.78 4242.08C4119.46 4246.83 4120.15 4251.88 4119.8 4256.9Z" fill="white"/>
<path d="M4233.37 4257.44C4232.88 4264.58 4230.32 4271.43 4225.99 4277.14C4221.66 4282.84 4215.76 4287.16 4209.01 4289.55C4202.26 4291.95 4194.96 4292.32 4188 4290.62C4181.04 4288.92 4174.74 4285.22 4169.85 4279.98C4164.97 4274.74 4161.73 4268.19 4160.52 4261.13C4159.31 4254.07 4160.2 4246.81 4163.06 4240.25C4165.93 4233.68 4170.65 4228.1 4176.65 4224.19C4182.64 4220.27 4189.66 4218.19 4196.82 4218.21C4206.86 4218.58 4216.35 4222.92 4223.2 4230.27C4230.05 4237.63 4233.7 4247.39 4233.37 4257.44V4257.44Z" fill="white"/>
<path d="M4346.94 4257.97C4346.45 4265.15 4343.86 4272.03 4339.49 4277.75C4335.12 4283.48 4329.16 4287.79 4322.36 4290.15C4315.56 4292.52 4308.22 4292.83 4301.24 4291.06C4294.27 4289.28 4287.96 4285.5 4283.12 4280.17C4278.28 4274.84 4275.11 4268.21 4274 4261.09C4272.9 4253.98 4273.91 4246.7 4276.91 4240.16C4279.91 4233.61 4284.77 4228.09 4290.88 4224.29C4296.99 4220.48 4304.09 4218.55 4311.28 4218.75C4321.17 4219.35 4330.43 4223.78 4337.09 4231.11C4343.75 4238.44 4347.28 4248.07 4346.94 4257.97V4257.97Z" fill="white"/>
</g>
<path d="M4185.59 1684.15C4197.97 1678.69 4208.48 1669.72 4215.8 1658.34C4223.13 1646.96 4226.94 1633.67 4226.77 1620.14C4227.23 1611.34 4225.9 1602.54 4222.85 1594.28C4219.8 1586.02 4215.1 1578.46 4209.04 1572.07C4202.98 1565.68 4195.68 1560.59 4187.58 1557.11C4179.49 1553.63 4170.77 1551.84 4161.96 1551.84C4153.15 1551.84 4144.44 1553.63 4136.34 1557.11C4128.25 1560.59 4120.95 1565.68 4114.89 1572.07C4108.82 1578.46 4104.12 1586.02 4101.07 1594.28C4098.03 1602.54 4096.69 1611.34 4097.15 1620.14C4096.88 1633.81 4100.67 1647.25 4108.03 1658.77C4115.39 1670.29 4126 1679.37 4138.52 1684.86C4038.67 1699.84 4043.13 1808.24 4043.13 1808.24L4279.19 1809.31C4279.19 1809.31 4284.72 1698.95 4185.59 1684.15Z" fill="#09A085"/>
<path opacity="0.1" d="M4185.59 1684.15C4197.97 1678.69 4208.48 1669.72 4215.8 1658.34C4223.13 1646.96 4226.94 1633.67 4226.77 1620.14C4227.23 1611.34 4225.9 1602.54 4222.85 1594.28C4219.8 1586.02 4215.1 1578.46 4209.04 1572.07C4202.98 1565.68 4195.68 1560.59 4187.58 1557.11C4179.49 1553.63 4170.77 1551.84 4161.96 1551.84C4153.15 1551.84 4144.44 1553.63 4136.34 1557.11C4128.25 1560.59 4120.95 1565.68 4114.89 1572.07C4108.82 1578.46 4104.12 1586.02 4101.07 1594.28C4098.03 1602.54 4096.69 1611.34 4097.15 1620.14C4096.88 1633.81 4100.67 1647.25 4108.03 1658.77C4115.39 1670.29 4126 1679.37 4138.52 1684.86C4038.67 1699.84 4043.13 1808.24 4043.13 1808.24L4279.19 1809.31C4279.19 1809.31 4284.72 1698.95 4185.59 1684.15Z" fill="black"/>
<path d="M4569.17 1879.22L3727.82 1875.41L3727.36 1975.96L4568.72 1979.78L4569.17 1879.22Z" fill="#09A085"/>
<path opacity="0.2" d="M4569.17 1879.22L3727.82 1875.41L3727.36 1975.96L4568.72 1979.78L4569.17 1879.22Z" fill="white"/>
<path d="M1476.08 2400.35H1467.7L1443.45 2402.13C1430.33 2402.92 1417.28 2404.65 1404.41 2407.3C1396.07 2408.47 1387.8 2410.08 1379.62 2412.11L1351.99 2419.78C1304.95 2434.21 1260.57 2456.19 1220.59 2484.86C1167.76 2523.2 1123.64 2572.3 1091.15 2628.92C1072.05 2661.55 1056.85 2696.32 1045.86 2732.5C1034.32 2771.83 1027.67 2812.43 1026.07 2853.39C1025.01 2874.9 1025.37 2896.46 1027.14 2917.93C1027.14 2928.8 1030.17 2939.68 1031.6 2950.73C1032.8 2961.88 1034.88 2972.91 1037.84 2983.72C1053.87 3055.26 1086.4 3122.07 1132.83 3178.81C1179.27 3235.55 1238.32 3280.66 1305.28 3310.53C1353.74 3331.44 1405.68 3343.11 1458.43 3344.94C1512.91 3347.93 1567.45 3340.12 1618.89 3321.94L1634.58 3316.05H1636.72L1638.5 3317.12L1863.33 3431.23L1856.73 3436.94C1832.66 3362.41 1809.49 3290.2 1787.02 3220.85V3218.17L1788.98 3216.21C1843.52 3161.28 1884.01 3094 1907.01 3020.09C1927.85 2952.52 1933.93 2881.26 1924.84 2811.13C1916.76 2748.81 1896.72 2688.63 1865.83 2633.91C1839.2 2586.9 1804.84 2544.71 1764.2 2509.1C1730.67 2480.92 1693.56 2457.3 1653.84 2438.86C1623.78 2425.89 1592.48 2416.04 1560.41 2409.44L1524.75 2403.56L1498.9 2401.59L1483.21 2400.52H1477.86C1479.64 2400.33 1481.43 2400.33 1483.21 2400.52H1499.08L1524.93 2401.59L1560.59 2406.76C1593.05 2412.88 1624.78 2422.38 1655.26 2435.11C1695.67 2453.34 1733.45 2476.91 1767.59 2505.18C1808.97 2540.63 1844.06 2582.83 1871.35 2629.99C1903.13 2685.3 1923.78 2746.29 1932.15 2809.53C1941.99 2880.74 1936.33 2953.23 1915.57 3022.05C1892.42 3097.5 1851.3 3166.21 1795.76 3222.27L1796.83 3217.64C1819.29 3286.99 1842.65 3359.2 1866.9 3433.55L1870.28 3444.42L1860.12 3439.25L1635.29 3325.33H1639.22L1623.17 3331.21C1570.73 3349.66 1515.19 3357.66 1459.68 3354.74C1405.79 3352.69 1352.76 3340.6 1303.32 3319.09C1208.99 3278.69 1130.52 3208.48 1079.92 3119.22C1056.63 3077.99 1039.62 3033.53 1029.46 2987.28C1026.68 2976.19 1024.59 2964.94 1023.22 2953.59C1021.79 2942.35 1019.47 2931.3 1018.94 2920.25C1014.11 2856.81 1020.82 2793.02 1038.73 2731.97C1049.99 2695.29 1065.61 2660.09 1085.26 2627.13C1118.54 2570 1163.57 2520.59 1217.38 2482.18C1258.02 2453.44 1303.15 2431.63 1350.92 2417.64L1378.91 2410.51C1387.15 2408.6 1395.48 2407.11 1403.87 2406.05C1416.88 2403.64 1430.05 2402.21 1443.27 2401.77L1467.7 2400.88C1470.48 2400.51 1473.28 2400.33 1476.08 2400.35Z" fill="#09A085"/>
<path d="M1577.71 2816.12H1544.72L1473.41 2715.92V2650.13C1473.41 2650.13 1422.41 2646.92 1428.48 2733.04C1434.54 2819.15 1428.48 2797.22 1428.48 2797.22C1428.48 2797.22 1320.25 2797.22 1311.34 2807.03C1302.42 2816.84 1301.89 2921.31 1300.64 2979.62C1299.96 2993.67 1303.99 3007.55 1312.1 3019.05C1320.21 3030.55 1331.93 3039.01 1345.39 3043.09C1349.17 3044.13 1353.06 3044.67 1356.98 3044.69C1384.08 3044.69 1521.9 3022.76 1521.9 3022.76H1578.78L1577.71 2816.12Z" fill="#09A085"/>
<path d="M1672.02 2798.47L1651.7 3023.83H1595.36V2803.11L1672.02 2798.47Z" fill="#09A085"/>
<path d="M2344.01 7386.46V7234.02L2070.69 7232.06L2068.37 7462.59L2085.3 7463.84C2160.72 7468.66 2468.99 7475.79 2519.62 7460.1C2575.96 7442.62 2344.01 7386.46 2344.01 7386.46Z" fill="#09A085"/>
<path d="M2526.04 7445.83C2526.04 7448.33 2423.7 7450.47 2297.65 7450.47C2171.6 7450.47 2069.26 7448.33 2069.26 7445.83C2069.26 7443.34 2171.6 7441.2 2297.65 7441.2C2423.7 7441.2 2526.04 7443.34 2526.04 7445.83Z" fill="#263238"/>
<path d="M2348.82 7417.66C2346.5 7416.42 2348.82 7408.39 2354.35 7399.83C2359.87 7391.28 2367.36 7387.71 2369.15 7389.49C2370.93 7391.28 2367.18 7398.05 2361.84 7405.36C2356.49 7412.67 2351.14 7418.91 2348.82 7417.66Z" fill="#263238"/>
<path d="M2366.29 7427.65C2363.8 7427.65 2365.04 7417.66 2370.39 7408.21C2375.74 7398.76 2382.87 7393.06 2384.83 7394.49C2386.8 7395.91 2383.59 7403.93 2378.59 7412.31C2373.6 7420.69 2368.61 7428.54 2366.29 7427.65Z" fill="#263238"/>
<path d="M2151.63 7445.12C2150.56 7445.12 2146.46 7441.91 2140.58 7435.14C2133.39 7426.43 2125.39 7418.43 2116.68 7411.24C2108.12 7404.4 2097.92 7399.92 2087.09 7398.23C2078.71 7397.16 2073.36 7398.23 2072.82 7397.16C2072.29 7396.09 2077.46 7392.35 2087.27 7391.63C2100.21 7391.36 2112.83 7395.65 2122.92 7403.76C2132.38 7411.46 2140.36 7420.83 2146.46 7431.39C2150.56 7439.24 2152.7 7444.41 2151.63 7445.12Z" fill="#263238"/>
<path d="M2349.71 7388.96C2350.96 7391.1 2346.32 7396.45 2338.48 7399.3C2330.63 7402.15 2323.68 7401.08 2323.32 7399.3C2322.97 7397.52 2328.5 7393.77 2335.27 7391.28C2342.05 7388.78 2348.29 7386.82 2349.71 7388.96Z" fill="#263238"/>
<path d="M2345.43 7374.16C2345.43 7376.83 2338.3 7378.97 2329.03 7379.15C2319.76 7379.33 2312.45 7377.19 2312.63 7374.69C2312.8 7372.2 2320.11 7369.88 2329.03 7369.7C2337.94 7369.52 2345.08 7371.66 2345.43 7374.16Z" fill="#263238"/>
<path d="M3017.06 7386.46V7234.02L2743.74 7232.06L2741.42 7460.28L2758.36 7461.52C2833.77 7466.34 3142.22 7475.79 3192.68 7460.1C3249.02 7442.62 3017.06 7386.46 3017.06 7386.46Z" fill="#09A085"/>
<path d="M3199.09 7446.19C3199.09 7448.69 3096.93 7450.83 2970.7 7450.83C2844.47 7450.83 2742.49 7448.69 2742.49 7446.19C2742.49 7443.69 2844.65 7441.55 2970.7 7441.55C3096.75 7441.55 3199.09 7443.69 3199.09 7446.19Z" fill="#263238"/>
<path d="M3021.87 7417.66C3019.73 7416.42 3021.87 7408.39 3027.4 7399.83C3032.93 7391.28 3040.41 7387.71 3042.2 7389.49C3043.98 7391.28 3040.24 7398.05 3034.89 7405.36C3029.54 7412.67 3024.19 7418.91 3021.87 7417.66Z" fill="#263238"/>
<path d="M3039.34 7427.65C3037.03 7427.65 3038.1 7417.66 3043.62 7408.21C3049.15 7398.76 3056.1 7393.06 3058.07 7394.49C3060.03 7395.91 3056.64 7403.93 3051.65 7412.31C3046.66 7420.69 3041.84 7428.54 3039.34 7427.65Z" fill="#263238"/>
<path d="M2824.68 7445.12C2823.61 7445.12 2819.69 7441.91 2813.63 7435.14C2806.45 7426.43 2798.45 7418.43 2789.74 7411.24C2781.17 7404.4 2770.97 7399.92 2760.14 7398.23C2751.94 7397.16 2746.41 7398.23 2745.88 7397.16C2745.34 7396.09 2750.51 7392.35 2760.32 7391.63C2773.26 7391.36 2785.88 7395.65 2795.98 7403.76C2805.48 7411.41 2813.47 7420.79 2819.51 7431.39C2823.61 7439.24 2825.75 7444.41 2824.68 7445.12Z" fill="#263238"/>
<path d="M3022.76 7388.96C3024.01 7391.1 3019.38 7396.45 3011.53 7399.3C3003.69 7402.15 2996.73 7401.08 2996.38 7399.3C2996.02 7397.52 3001.55 7393.77 3008.32 7391.28C3015.1 7388.78 3021.34 7386.82 3022.76 7388.96Z" fill="#263238"/>
<path d="M3018.84 7374.16C3018.84 7376.83 3011.71 7378.97 3002.44 7379.15C2993.17 7379.33 2986.04 7377.19 2986.21 7374.69C2986.39 7372.2 2993.52 7369.88 3002.44 7369.7C3011.35 7369.52 3018.84 7371.66 3018.84 7374.16Z" fill="#263238"/>
<path d="M4024.05 2859.63C4016.92 2852.32 3999.27 2855.88 3999.27 2855.88C4001.04 2845.62 4001.04 2835.12 3999.27 2824.86C3996.06 2814.88 3973.6 2816.84 3973.6 2816.84C3972.56 2808.43 3972.56 2799.93 3973.6 2791.52C3973.77 2789.66 3973.37 2787.78 3972.45 2786.15C3971.52 2784.53 3970.12 2783.23 3968.43 2782.43C3957.8 2778.09 3946.38 2776.03 3934.91 2776.36C3921.18 2766.56 3976.81 2688.64 3997.49 2663.68C4018.17 2638.72 4014.42 2619.29 3996.06 2619.29C3983.4 2619.29 3918.5 2694.17 3898.53 2719.31C3878.57 2744.45 3825.61 2814.34 3823.83 2758.54C3822.05 2702.73 3799.58 2660.65 3785.5 2653.52C3771.41 2646.39 3756.44 2663.15 3764.1 2678.66C3770.84 2696.28 3775.04 2714.77 3776.58 2733.57C3778.52 2748.55 3777.86 2763.75 3774.62 2778.5C3768.71 2805.95 3760.66 2832.9 3750.55 2859.09H3749.13C3749.13 2859.09 3360.09 3232.26 3331.92 3258.82C3306.78 3282.71 2801.15 3230.47 2699.7 3219.78C2665.23 3214.73 2630.42 3212.35 2595.58 3212.65C2551.54 3214.61 2543.69 3220.85 2499.83 3221.38C2389.07 3222.61 2278.56 3232.33 2169.28 3250.44C2119.8 3258.86 2073.58 3280.7 2035.66 3313.58C1997.74 3346.47 1969.58 3389.14 1954.26 3436.94C1852.1 3756.08 1620.68 4511.5 1579.85 4935.84C1548.99 4991.79 1521.14 5049.34 1496.41 5108.25C1467.7 5186.34 1474.65 5189.01 1484.28 5190.8C1510.31 5195.61 1539.91 5055.47 1550.96 5089.35C1562.02 5123.22 1494.8 5256.41 1522.08 5260.33C1557.74 5265.32 1586.09 5117.7 1589.47 5105.93C1592.86 5094.16 1610.51 5097.91 1607.3 5108.96C1602.13 5124.65 1552.03 5291 1586.98 5296.34C1606.23 5299.2 1608.37 5264.07 1608.37 5264.07C1608.37 5264.07 1644.03 5104.86 1660.26 5108.07C1676.48 5111.28 1659.19 5205.24 1650.98 5236.62C1642.78 5268 1654.19 5283.86 1670.95 5276.2C1682.36 5270.85 1709.64 5175.46 1717.13 5144.44C1724.62 5113.42 1743.34 5027.48 1768.48 5077.22C1793.62 5126.97 1831.77 5155.85 1847.46 5156.56C1851 5156.16 1854.33 5154.7 1857.03 5152.38C1859.73 5150.06 1861.68 5146.99 1862.62 5143.56C1863.56 5140.13 1863.45 5136.49 1862.3 5133.12C1861.16 5129.75 1859.03 5126.8 1856.2 5124.65C1842.7 5111.47 1831.12 5096.47 1821.79 5080.08C1813.47 5067.31 1807.44 5053.19 1803.96 5038.36C1796.77 5008.78 1792.59 4978.55 1791.48 4948.14L1788.63 4930.31C1828.56 4732.58 1943.56 4152.24 2109.55 3781.57L2177.66 3921.71L2207.26 4025.48L2025.75 4473.53L2799.9 4463.36L2684.37 4018.7L2824.68 3555.14C2976.41 3558.53 3365.98 3564.24 3430.87 3534.82C3512.53 3499.16 3934.91 2965.71 3934.91 2965.71C3962.44 2944.32 3988.8 2921.46 4013.89 2897.25C4013.89 2897.25 4039.56 2875.67 4024.05 2859.63Z" fill="#FFBE9D"/>
<path d="M1991.7 4142.44C2014.17 4065.77 2129.52 3686.72 2129.52 3686.72C2129.52 3686.72 2186.22 3995.7 2171.24 4032.97C2157.47 4064.87 2141.19 4095.63 2122.57 4124.97C1991.7 4324.12 2008.82 4423.78 2008.82 4423.78L2799.54 4399.71C2801.33 4289.17 2735.89 4032.08 2722.34 3991.07C2708.79 3950.06 2753.9 3815.81 2753.9 3815.81C2753.9 3815.81 2843.05 3725.06 2839.84 3678.34C2838.14 3636.38 2832.95 3594.64 2824.33 3553.54L3305.71 3571.37L3290.56 3245.09L2599.14 3175.92C2575.07 3243.85 2357.38 3210.51 2357.38 3210.51C2122.39 3218.35 2107.77 3261.5 2010.07 3337.45C1912.36 3413.4 1750.65 4065.24 1750.65 4065.24L1991.7 4142.44Z" fill="#09A085"/>
<path d="M2459.18 4065.24C2445.48 4067.69 2431.52 4068.41 2417.64 4067.38C2391.79 4067.38 2356.31 4065.59 2317.26 4061.67C2278.22 4057.75 2242.91 4052.22 2217.78 4047.23C2203.91 4045.45 2190.32 4041.97 2177.3 4036.89C2191.24 4036.9 2205.15 4038.21 2218.84 4040.81C2244.16 4044.02 2279.29 4048.48 2318.15 4052.4C2357.02 4056.32 2392.32 4059 2417.82 4060.78C2431.72 4060.96 2445.57 4062.45 2459.18 4065.24V4065.24Z" fill="#263238"/>
<path d="M2513.38 3998.02C2499.68 4004.74 2485.18 4009.71 2470.24 4012.82C2399.11 4031.51 2325.72 4040.21 2252.19 4038.67C2236.97 4039.17 2221.75 4037.73 2206.9 4034.39C2221.92 4032.5 2237.05 4031.72 2252.19 4032.08C2280.18 4031.18 2318.69 4029.22 2361.12 4024.23C2403.56 4019.24 2441.35 4012.11 2468.1 4006.4C2482.95 4002.43 2498.09 3999.63 2513.38 3998.02V3998.02Z" fill="#263238"/>
<path d="M2779.4 3698.13C2779.04 3711.73 2777.18 3725.24 2773.87 3738.43C2769.23 3763.21 2762.1 3797.09 2753.01 3834.17C2743.92 3871.26 2735.18 3905.49 2727.33 3928.67C2724.18 3941.93 2719.51 3954.8 2713.43 3967C2714.42 3953.45 2716.93 3940.05 2720.92 3927.06C2727.69 3899.25 2735.36 3867.16 2743.92 3832.03C2752.47 3796.91 2760.68 3764.82 2767.45 3737C2769.86 3723.62 2773.87 3710.57 2779.4 3698.13V3698.13Z" fill="#263238"/>
<path d="M2000.08 4096.97C1958.83 4090.6 1918.13 4081.13 1878.31 4068.63C1837.62 4059.11 1797.69 4046.6 1758.85 4031.18C1800.08 4037.66 1840.78 4047.13 1880.63 4059.53C1921.32 4069.01 1961.25 4081.53 2000.08 4096.97V4096.97Z" fill="#263238"/>
<path d="M2832.88 3549.62C2826.16 3550.77 2819.28 3550.77 2812.56 3549.62C2793.93 3547.71 2775.65 3543.33 2758.18 3536.6C2729.01 3525.64 2702.46 3508.7 2680.23 3486.87C2658 3465.04 2640.58 3438.8 2629.09 3409.84C2616.4 3377.98 2610.98 3343.68 2613.23 3309.46C2614.02 3281.23 2622.46 3253.75 2637.65 3229.94C2648.34 3213.9 2664.29 3202.11 2682.76 3196.6C2687.69 3195.24 2692.8 3194.58 2697.92 3194.64C2701.48 3194.64 2703.26 3194.64 2703.26 3194.64C2703.26 3194.64 2695.78 3194.64 2683.83 3199.45C2666.89 3205.71 2652.52 3217.44 2643 3232.79C2618.75 3270.95 2611.98 3340.66 2637.83 3405.74C2649.86 3436.42 2668.7 3463.97 2692.92 3486.32C2712.77 3504.61 2735.63 3519.33 2760.5 3529.83C2783.83 3539.05 2808.1 3545.68 2832.88 3549.62V3549.62Z" fill="#263238"/>
<path d="M3248.48 3564.95C3244.02 3510.28 3242.59 3455.4 3244.2 3400.57C3242.81 3345.78 3244.47 3290.96 3249.19 3236.36C3253.66 3290.97 3255.09 3345.79 3253.47 3400.57C3254.97 3455.41 3253.31 3510.3 3248.48 3564.95V3564.95Z" fill="#263238"/>
<path d="M2594.51 3195.89C2596.47 3156.13 2600.57 3111.2 2600.57 3111.2C2600.57 3111.2 2698.99 3100.32 2704.87 2998.7C2710.75 2897.07 2704.87 2662.61 2704.87 2662.61L2526.58 2571.33L2328.67 2726.98L2359.16 3235.11L2540.66 3246.7C2554.54 3247.08 2568 3241.95 2578.09 3232.42C2588.18 3222.9 2594.09 3209.76 2594.51 3195.89V3195.89Z" fill="#FFBE9D"/>
<path d="M2612.16 2918.29C2612.16 2918.29 2612.16 2920.25 2610.55 2922.56C2609.23 2924.25 2607.51 2925.58 2605.55 2926.45C2603.6 2927.32 2601.46 2927.7 2599.32 2927.56C2587.91 2927.56 2576.86 2914.36 2572.93 2899.03C2571.07 2891.6 2571.07 2883.82 2572.93 2876.39C2573.3 2873.14 2574.47 2870.04 2576.34 2867.36C2578.21 2864.69 2580.71 2862.52 2583.63 2861.05C2586.03 2860.06 2588.72 2860.06 2591.12 2861.05C2592.9 2861.94 2594.34 2863.38 2595.22 2865.15C2596.47 2868.19 2595.22 2870.15 2595.22 2869.97C2595.22 2869.79 2595.22 2868.19 2593.44 2866.4C2592.5 2865.13 2591.13 2864.24 2589.59 2863.91C2588.04 2863.58 2586.43 2863.83 2585.06 2864.62C2582.87 2865.94 2581.05 2867.8 2579.77 2870.01C2578.5 2872.22 2577.8 2874.72 2577.75 2877.28C2576.25 2883.91 2576.25 2890.79 2577.75 2897.42C2581.31 2911.33 2590.94 2922.56 2599.5 2923.63C2601.17 2923.86 2602.88 2923.74 2604.5 2923.28C2606.13 2922.82 2607.64 2922.03 2608.95 2920.96C2611.09 2919.53 2611.8 2918.11 2612.16 2918.29Z" fill="#EB996E"/>
<path d="M2766.02 2607.7C2752.29 2560.99 2702.55 2537.81 2657.26 2524.97C2588.27 2505.36 2513.74 2496.8 2446.35 2521.59C2378.95 2546.37 2298.01 2589.87 2298.01 2664.22C2258.25 2661.01 2235.43 2695.78 2219.74 2738.92C2209.7 2765.21 2203.69 2792.86 2201.91 2820.94V2820.94C2196.91 2918.29 2169.64 3052.72 2106.52 3124.03C2070.86 3163.79 2021.48 3191.25 2001.15 3240.82C1983.32 3283.78 1992.59 3334.78 1976.01 3378.28C1961.21 3416.61 1928.58 3443.89 1904.69 3477.23C1880.35 3515.05 1866.03 3558.44 1863.07 3603.32C1860.1 3648.2 1868.6 3693.1 1887.76 3733.79C1907.05 3773.44 1934.21 3808.75 1967.6 3837.56C2000.98 3866.38 2039.87 3888.09 2081.92 3901.39C2165.2 3926.72 2254.01 3927.59 2337.77 3903.88C2400.63 3888.85 2459.27 3859.78 2509.28 3818.84C2560.46 3777.05 2595.61 3718.84 2608.77 3654.1C2621.43 3581.35 2601.1 3507.36 2585.95 3434.98C2538.52 3206.23 2552.07 3194.28 2611.98 2981.94C2613.4 2978.19 2614.12 2974.27 2615.19 2970.52C2616.26 2966.78 2616.79 2965 2617.51 2962.14C2619.21 2953.75 2620.1 2945.21 2620.18 2936.65C2611.43 2939.9 2601.93 2940.59 2592.81 2938.63C2583.68 2936.67 2575.3 2932.15 2568.65 2925.59C2561.99 2918.6 2557.35 2909.94 2555.21 2900.52C2553.08 2891.11 2553.53 2881.29 2556.53 2872.11C2560.74 2862.07 2567 2853.02 2574.93 2845.56C2582.85 2838.1 2592.26 2832.38 2602.53 2828.78C2622.32 2820.58 2643.54 2816.3 2662.97 2807.21C2704.16 2787.6 2732.68 2746.95 2752.12 2704.33C2768.09 2674.8 2773.02 2640.54 2766.02 2607.7V2607.7Z" fill="#263238"/>
<path d="M2619.29 2923.1C2623.06 2928.66 2626.17 2934.65 2628.56 2940.93C2633.91 2952.16 2641.04 2968.03 2648.89 2986.39L2650.31 2989.78H2646.57L2628.74 2991.38C2616.44 2991.38 2606.1 2993.7 2593.97 2993.52C2592.92 2993.29 2591.94 2992.79 2591.13 2992.07C2590.32 2991.35 2589.7 2990.44 2589.34 2989.42C2588.8 2987.8 2588.8 2986.05 2589.34 2984.43C2589.75 2982.03 2590.28 2979.65 2590.94 2977.3L2594.15 2964.64C2595.76 2956.2 2598.27 2947.95 2601.64 2940.04C2601.31 2948.64 2600.05 2957.19 2597.89 2965.53L2595.4 2978.19C2594.51 2982.47 2592.9 2989.07 2595.4 2988.53C2604.31 2988.53 2616.97 2986.57 2628.74 2985.86L2646.57 2984.25L2644.25 2988.18C2636.58 2970.35 2630.16 2953.59 2626.42 2942C2623.14 2936.08 2620.73 2929.71 2619.29 2923.1V2923.1Z" fill="#09A085"/>
<path d="M2008.82 4423.78L2799.54 4399.71L3143.65 5742.97L3080.35 7283.77H2662.26L2713.43 5775.77L2407.66 4840.63L2454.72 7343.49L2032.17 7349.73L1987.78 4997.17C1985.82 4931.74 1964.42 4784.29 1972.44 4719.39L2008.82 4423.78Z" fill="#263238"/>
<path d="M2512.85 4859.71C2499.91 4860.52 2486.91 4859.74 2474.16 4857.39C2450.27 4854.54 2417.64 4849.54 2381.8 4842.41C2345.97 4835.28 2313.88 4827.08 2290.7 4820.48C2278.31 4817.76 2266.32 4813.44 2255.04 4807.65C2255.04 4804.97 2313.16 4818.88 2384.48 4833.32C2455.8 4847.76 2513.21 4857.03 2512.85 4859.71Z" fill="#455A64"/>
<path d="M3076.07 7199.25C3076.07 7201.75 2981.4 7203.89 2864.62 7203.89C2747.84 7203.89 2652.99 7201.75 2652.99 7199.25C2652.99 7196.76 2747.66 7194.62 2864.62 7194.62C2981.58 7194.62 3076.07 7196.58 3076.07 7199.25Z" fill="#455A64"/>
<path d="M2450.98 7278.42C2450.98 7281.09 2358.98 7283.05 2245.59 7283.05C2132.2 7283.05 2040.38 7281.09 2040.38 7278.42C2040.38 7275.74 2132.37 7273.78 2245.59 7273.78C2358.8 7273.78 2450.98 7275.92 2450.98 7278.42Z" fill="#455A64"/>
<path d="M2396.42 7272C2393.93 7272 2382.87 6725.18 2371.64 6050.7C2360.41 5376.22 2353.81 4829.04 2356.13 4829.04C2358.45 4829.04 2369.86 5375.68 2380.91 6050.52C2391.97 6725.36 2399.1 7272 2396.42 7272Z" fill="#455A64"/>
<path d="M3019.91 7199.26C3019.72 7196.82 3019.72 7194.38 3019.91 7191.95V7170.55C3019.91 7151.3 3021.34 7123.66 3022.41 7088.54C3024.91 7017.22 3028.47 6913.63 3032.93 6786.69C3042.56 6531.37 3056.11 6179.43 3070.9 5790.93C3070.9 5787.18 3070.9 5783.62 3070.9 5780.41V5781.66C2977.3 5407.24 2892.61 5067.42 2831.1 4821.55L2759.78 4530.76C2751.58 4496.7 2745.34 4470.14 2740.89 4451.6C2738.75 4442.86 2737.32 4436.09 2736.07 4430.91C2735.38 4428.59 2734.96 4426.2 2734.82 4423.78C2735.75 4426.03 2736.47 4428.36 2736.96 4430.74C2738.39 4435.73 2740.17 4442.5 2742.67 4451.06C2747.48 4468.89 2754.44 4495.99 2763.35 4529.87C2781.18 4598.69 2806.32 4697.82 2837.7 4819.95C2899.74 5065.63 2985.32 5404.57 3080.18 5779.52V5780.76C3080.18 5783.97 3080.18 5787.72 3080.18 5791.28C3064.31 6179.78 3049.87 6531.55 3039.35 6786.87C3033.82 6913.99 3029.18 7016.86 3025.97 7088.54C3024.19 7124.19 3022.77 7151.3 3021.87 7170.55C3021.87 7179.64 3020.8 7186.77 3020.63 7191.95C3020.65 7194.4 3020.41 7196.85 3019.91 7199.26V7199.26Z" fill="#455A64"/>
<path d="M2883.52 5749.03C2853.49 5758.9 2822.55 5765.77 2791.16 5769.53C2752.65 5776.13 2719.85 5780.76 2705.05 5781.48V5777.91C2709.86 5779.34 2712.36 5780.23 2712.36 5780.94C2712.36 5781.66 2709.33 5780.94 2704.33 5780.94H2693.64L2704.33 5777.73C2718.24 5773.63 2751.05 5766.86 2789.56 5759.9C2820.44 5753.2 2851.92 5749.56 2883.52 5749.03Z" fill="#455A64"/>
<path d="M2876.21 5800.2C2848.4 5801.47 2820.53 5800.22 2792.95 5796.45C2765.1 5795.88 2737.35 5792.84 2710.04 5787.36C2765.76 5782.81 2821.85 5787.15 2876.21 5800.2V5800.2Z" fill="#455A64"/>
<path opacity="0.2" d="M2005.43 4452.13C2014.79 4464.16 2026.59 4474.07 2040.05 4481.23C2053.5 4488.39 2068.32 4492.63 2083.52 4493.67C2115.37 4497.45 2147.58 4496.85 2179.26 4491.89C2383.41 4469.25 2599.68 4448.39 2799.54 4399.71C2540.84 4414.16 2267.52 4409.34 2008.82 4423.78L2006.14 4445.89" fill="black"/>
<g opacity="0.2">
<path d="M2271.98 4816.74L2417.82 5382.64L2407.66 4840.63L2271.98 4816.74Z" fill="black"/>
</g>
</svg>
