<svg width="2048" height="2536" viewBox="0 0 2048 2536" fill="none" xmlns="http://www.w3.org/2000/svg">
<g clip-path="url(#clip0_61_702)">
<rect width="2048" height="2536" fill="white"/>
<g filter="url(#filter0_d_61_702)">
<path d="M0 -665H2048H2458V2027L2048 1733.5C2048 1733.5 1797.5 1594.5 1797.5 1227C1797.5 874.371 2251.14 560.738 2048 272.5C1877.5 30.5754 1608.95 -31.2466 1299.5 39C990.048 109.247 894.5 343.5 523 457.5C226.019 548.633 0 473 0 473V-665Z" fill="white"/>
</g>
<g filter="url(#filter1_d_61_702)">
<path d="M-41.0003 2535.95H1362.5C1362.5 2535.95 1362.5 2081.5 799 1870C-103.988 1531.08 -41.0002 874 -41.0002 874L-41.0003 2535.95Z" fill="white"/>
</g>
<g filter="url(#filter2_d_61_702)">
<path d="M1042.16 288.064C1318 51.0001 1694.02 90.9091 1872.69 227.754C2121.18 418.085 1913.76 686.175 1785.47 935.552C1560.53 1372.81 1859.17 1624.22 1548.33 1839.47C1277.86 2026.77 608.855 1712.56 367.843 1513.62C129.571 1316.95 49.873 1055.62 239.746 796.571C403.143 573.649 792.44 502.686 1042.16 288.064Z" fill="white"/>
</g>
</g>
<defs>
<filter id="filter0_d_61_702" x="-90" y="-750" width="2658" height="2892" filterUnits="userSpaceOnUse" color-interpolation-filters="sRGB">
<feFlood flood-opacity="0" result="BackgroundImageFix"/>
<feColorMatrix in="SourceAlpha" type="matrix" values="0 0 0 0 0 0 0 0 0 0 0 0 0 0 0 0 0 0 127 0" result="hardAlpha"/>
<feOffset dx="10" dy="15"/>
<feGaussianBlur stdDeviation="50"/>
<feComposite in2="hardAlpha" operator="out"/>
<feColorMatrix type="matrix" values="0 0 0 0 0.443137 0 0 0 0 0.596078 0 0 0 0 0.909804 0 0 0 0.2 0"/>
<feBlend mode="normal" in2="BackgroundImageFix" result="effect1_dropShadow_61_702"/>
<feBlend mode="normal" in="SourceGraphic" in2="effect1_dropShadow_61_702" result="shape"/>
</filter>
<filter id="filter1_d_61_702" x="-131.944" y="789" width="1604.45" height="1861.95" filterUnits="userSpaceOnUse" color-interpolation-filters="sRGB">
<feFlood flood-opacity="0" result="BackgroundImageFix"/>
<feColorMatrix in="SourceAlpha" type="matrix" values="0 0 0 0 0 0 0 0 0 0 0 0 0 0 0 0 0 0 127 0" result="hardAlpha"/>
<feOffset dx="10" dy="15"/>
<feGaussianBlur stdDeviation="50"/>
<feComposite in2="hardAlpha" operator="out"/>
<feColorMatrix type="matrix" values="0 0 0 0 0.443137 0 0 0 0 0.596078 0 0 0 0 0.909804 0 0 0 0.2 0"/>
<feBlend mode="normal" in2="BackgroundImageFix" result="effect1_dropShadow_61_702"/>
<feBlend mode="normal" in="SourceGraphic" in2="effect1_dropShadow_61_702" result="shape"/>
</filter>
<filter id="filter2_d_61_702" x="43.9746" y="32.5884" width="2055.09" height="1979.27" filterUnits="userSpaceOnUse" color-interpolation-filters="sRGB">
<feFlood flood-opacity="0" result="BackgroundImageFix"/>
<feColorMatrix in="SourceAlpha" type="matrix" values="0 0 0 0 0 0 0 0 0 0 0 0 0 0 0 0 0 0 127 0" result="hardAlpha"/>
<feOffset dx="10" dy="15"/>
<feGaussianBlur stdDeviation="50"/>
<feComposite in2="hardAlpha" operator="out"/>
<feColorMatrix type="matrix" values="0 0 0 0 0.443137 0 0 0 0 0.596078 0 0 0 0 0.909804 0 0 0 0.2 0"/>
<feBlend mode="normal" in2="BackgroundImageFix" result="effect1_dropShadow_61_702"/>
<feBlend mode="normal" in="SourceGraphic" in2="effect1_dropShadow_61_702" result="shape"/>
</filter>
<clipPath id="clip0_61_702">
<rect width="2048" height="2536" fill="white"/>
</clipPath>
</defs>
</svg>
