<svg width="458" height="402" viewBox="0 0 458 402" fill="none" xmlns="http://www.w3.org/2000/svg">
<circle cx="230" cy="177" r="160" fill="white"/>
<circle cx="229.183" cy="176.657" r="159.867" stroke="#09A085" stroke-width="2.76654"/>
<circle cx="229.184" cy="176.657" r="17.9825" stroke="#09A085" stroke-width="2.76654"/>
<path d="M191.217 219.084C197.99 211.796 206.121 203.526 210.043 199.566C211.36 198.236 213.488 198.16 214.999 199.265C218.049 201.497 223.235 204.767 227.602 204.916C232.487 205.083 238.455 201.416 241.739 199.082C243.185 198.054 245.172 198.086 246.481 199.285C250.783 203.227 260.284 212.053 267.165 219.323C270.658 223.015 270.261 228.77 266.196 231.821C254.655 240.481 242.814 244.092 227.602 244.042C212.765 243.994 202.59 240.568 191.996 232.249C187.853 228.996 187.631 222.941 191.217 219.084Z" stroke="#09A085" stroke-width="2.76654"/>
<path d="M271.456 214.365C264.143 207.619 255.842 199.519 251.868 195.612C250.533 194.3 250.448 192.172 251.548 190.658C253.769 187.598 257.019 182.401 257.152 178.033C257.3 173.147 253.611 167.194 251.264 163.918C250.231 162.476 250.255 160.489 251.449 159.176C255.375 154.858 264.165 145.324 271.41 138.416C275.089 134.909 280.845 135.284 283.911 139.338C292.615 150.846 296.271 162.674 296.278 177.886C296.285 192.723 292.897 202.911 284.618 213.536C281.381 217.691 275.327 217.936 271.456 214.365Z" stroke="#09A085" stroke-width="2.76654"/>
<path d="M186.517 139.147C193.83 145.893 202.13 153.992 206.105 157.899C207.44 159.211 207.524 161.339 206.425 162.854C204.204 165.913 200.954 171.11 200.821 175.478C200.672 180.364 204.362 186.318 206.708 189.593C207.742 191.036 207.717 193.023 206.523 194.336C202.597 198.653 193.807 208.187 186.562 215.095C182.884 218.602 177.128 218.227 174.062 214.173C165.358 202.665 161.702 190.838 161.695 175.625C161.688 160.788 165.075 150.601 173.354 139.975C176.591 135.82 182.645 135.575 186.517 139.147Z" stroke="#09A085" stroke-width="2.76654"/>
<path d="M182.867 104.92L154.941 56.4515C152.492 52.2018 146.924 50.9996 143.023 53.9714C137.002 58.5572 128.585 65.2516 122.951 70.9087C117.091 76.793 110.101 85.224 105.286 91.2398C102.168 95.1341 103.302 100.839 107.614 103.348L155.961 131.472C159.19 133.351 163.276 132.84 165.944 130.225L181.485 114.99C184.188 112.341 184.756 108.199 182.867 104.92Z" stroke="#09A085" stroke-width="2.76654"/>
<path d="M225.015 90.704L224.847 34.7665C224.832 29.8619 220.596 26.0534 215.734 26.6951C208.231 27.6854 197.601 29.316 189.901 31.4282C181.892 33.6252 171.639 37.4719 164.471 40.3017C159.831 42.1336 157.982 47.6487 160.479 51.9672L188.475 100.389C190.345 103.623 194.145 105.209 197.76 104.264L218.815 98.7586C222.476 97.8013 225.026 94.4884 225.015 90.704Z" stroke="#09A085" stroke-width="2.76654"/>
<path d="M269.82 100.483L297.52 51.886C299.949 47.6249 298.172 42.2134 293.635 40.3493C286.635 37.4729 276.604 33.5953 268.875 31.5942C260.835 29.5126 250.027 27.7444 242.402 26.6305C237.466 25.9094 233.117 29.7719 233.133 34.7603L233.308 90.6923C233.32 94.4281 235.826 97.6957 239.431 98.6754L260.433 104.382C264.085 105.375 267.946 103.771 269.82 100.483Z" stroke="#09A085" stroke-width="2.76654"/>
<path d="M302.254 131.174L350.878 103.52C355.141 101.095 356.374 95.5345 353.424 91.6161C348.872 85.5698 342.225 77.1157 336.6 71.4502C330.748 65.557 322.357 58.5204 316.368 53.6709C312.491 50.5316 306.78 51.6335 304.247 55.9313L275.852 104.12C273.956 107.339 274.443 111.428 277.044 114.11L292.191 129.736C294.825 132.454 298.964 133.045 302.254 131.174Z" stroke="#09A085" stroke-width="2.76654"/>
<path d="M315.13 174.063L371.062 174.875C375.966 174.946 379.848 170.777 379.292 165.904C378.433 158.385 376.989 147.728 375.012 139.993C372.955 131.947 369.289 121.627 366.585 114.411C364.835 109.74 359.353 107.794 354.991 110.215L306.087 137.359C302.82 139.172 301.168 142.944 302.05 146.575L307.185 167.723C308.078 171.401 311.346 174.008 315.13 174.063Z" stroke="#09A085" stroke-width="2.76654"/>
<path d="M304.766 218.305L352.858 246.874C357.075 249.379 362.518 247.699 364.463 243.196C367.465 236.249 371.522 226.289 373.661 218.597C375.887 210.596 377.849 199.822 379.1 192.218C379.909 187.296 376.125 182.878 371.138 182.804L315.211 181.975C311.476 181.92 308.164 184.367 307.12 187.954L301.036 208.849C299.979 212.483 301.513 216.372 304.766 218.305Z" stroke="#09A085" stroke-width="2.76654"/>
<path d="M273.193 250.59L300.181 299.586C302.547 303.883 308.091 305.192 312.049 302.296C318.157 297.826 326.701 291.295 332.443 285.748C338.415 279.977 345.566 271.682 350.497 265.761C353.689 261.927 352.665 256.201 348.402 253.61L300.605 224.56C297.413 222.62 293.318 223.051 290.6 225.615L274.768 240.548C272.015 243.145 271.368 247.275 273.193 250.59Z" stroke="#09A085" stroke-width="2.76654"/>
<path d="M230.017 262.656L228.287 318.567C228.135 323.469 232.239 327.419 237.121 326.943C244.653 326.208 255.332 324.939 263.099 323.089C271.178 321.165 281.556 317.669 288.816 315.084C293.515 313.411 295.55 307.962 293.202 303.561L266.865 254.217C265.106 250.921 261.361 249.207 257.717 250.029L236.487 254.817C232.795 255.649 230.134 258.873 230.017 262.656Z" stroke="#09A085" stroke-width="2.76654"/>
<path d="M187.165 251.633L158.377 299.594C155.852 303.799 157.507 309.249 162.001 311.215C168.935 314.248 178.876 318.351 186.558 320.526C194.549 322.788 205.314 324.799 212.912 326.085C217.83 326.917 222.266 323.153 222.362 318.166L223.447 262.244C223.519 258.509 221.087 255.186 217.505 254.125L196.638 247.946C193.009 246.872 189.113 248.388 187.165 251.633Z" stroke="#09A085" stroke-width="2.76654"/>
<path d="M155.79 220.687L106.407 246.962C102.077 249.266 100.688 254.79 103.527 258.79C107.907 264.962 114.313 273.599 119.777 279.421C125.461 285.476 133.651 292.746 139.501 297.762C143.288 301.01 149.028 300.069 151.68 295.844L181.42 248.473C183.406 245.309 183.034 241.208 180.51 238.453L165.808 222.407C163.251 219.617 159.131 218.909 155.79 220.687Z" stroke="#09A085" stroke-width="2.76654"/>
<path d="M143.9 178.117L87.9871 176.451C83.0846 176.305 79.1392 180.413 79.6212 185.294C80.3649 192.826 81.646 203.504 83.5045 211.268C85.4377 219.345 88.9462 229.719 91.5394 236.976C93.2182 241.673 98.6696 243.702 103.068 241.348L152.381 214.955C155.675 213.192 157.385 209.446 156.559 205.803L151.747 184.578C150.91 180.887 147.683 178.23 143.9 178.117Z" stroke="#09A085" stroke-width="2.76654"/>
<path d="M153.036 135.923L104.336 108.403C100.066 105.99 94.6606 107.788 92.8134 112.332C89.9631 119.343 86.1228 129.388 84.1504 137.124C82.0988 145.172 80.3707 155.986 79.2852 163.615C78.5825 168.554 82.4611 172.889 87.4494 172.855L143.38 172.471C147.116 172.445 150.374 169.927 151.341 166.318L156.97 145.296C157.948 141.64 156.33 137.785 153.036 135.923Z" stroke="#09A085" stroke-width="2.76654"/>
<path d="M266.756 134.428C259.982 141.716 251.852 149.986 247.93 153.946C246.613 155.276 244.485 155.352 242.974 154.247C239.923 152.015 234.738 148.745 230.371 148.596C225.486 148.429 219.518 152.095 216.234 154.43C214.787 155.458 212.8 155.426 211.492 154.227C207.189 150.285 197.688 141.459 190.808 134.188C187.315 130.497 187.711 124.742 191.776 121.691C203.317 113.03 215.158 109.419 230.371 109.469C245.208 109.518 255.383 112.944 265.977 121.263C270.119 124.515 270.341 130.57 266.756 134.428Z" stroke="#09A085" stroke-width="2.76654"/>
<path d="M280.699 98.6544C279.811 98.0994 279.071 97.3513 278.537 96.4698C278.004 95.5883 277.691 94.5977 277.625 93.5771L278.169 93.5416C278.332 91.0303 274.318 90.147 275.461 87.585C278.932 87.6745 281.798 92.0678 283.874 94.4068C293.81 93.6009 288.78 105.406 296.516 108.323C298.338 109.06 296.255 112.684 298.952 112.205C301.379 113.837 304.418 115.665 304.114 118.541C305.325 123.516 309.068 116.665 311.603 119.764C313.715 121.179 310.325 122.348 310.839 124.157C312.15 124.598 313.245 122.763 314.31 124.246C314.829 125.924 313.584 126.702 312.761 127.69C312.069 130.684 315.559 128.745 316.696 130.066C318.516 133.291 320.121 138.227 317.808 142.102C321.67 145.667 317.764 149.791 317.266 153.456C314.841 156.023 314.737 161.545 309.764 160.618C308.763 162.632 309.072 165.283 308.045 166.89L306.278 167.005L304.298 174.097L304.326 174.108L308.454 178.182C308.608 183.068 315.62 184.296 316.396 189.075C316.396 189.075 317.019 191.6 317.359 193.053C317.598 194.077 315.264 194.743 315.264 194.743C311.49 194.831 308.896 197.106 304.934 196.812L304.771 196.835C300.404 194.093 301.664 199.828 298.039 199.683C296.741 199.452 296.32 198.005 296.071 196.705C295.952 199.898 293.554 202.463 291.868 205.06C284.958 203.721 287.446 212.588 280.66 211.056C281.706 213.488 284.398 210.417 285.903 211.109C286.997 210.511 286.676 209.347 287.187 208.616C287.736 205.948 290.959 204.725 293.81 205.552C295.395 207.686 295.986 210.464 296.075 213.091C294.543 214.283 294.663 216.131 294.943 217.903C293.139 221.206 294.465 227.937 288.347 227.651C281.87 225.836 274.861 224.648 267.88 224.945L267.971 226.335L256.563 229.17C256.298 229.243 256.032 229.309 255.765 229.368L256.563 229.17C260.725 228.027 264.747 225.24 266.881 221.97C267.443 220.749 268.069 218.01 266.176 217.436L266.191 217.448C264.643 218.405 263.366 218.488 262.598 220.315C260.906 222.834 258.416 220.429 256.595 219.693C257.183 220.352 258.599 221.971 257.138 223C255.416 225.061 253.468 222.384 251.612 221.966C250.964 228.141 248.213 220.476 244.798 222.094C243.131 218.702 240.903 223.046 238.65 222.811C236.974 224.315 237.155 228.344 233.761 228.184L227.475 228.673C227.141 226.062 226.97 223.441 228.274 221.25C229.658 220.304 231.914 221.408 233.099 219.922C232.856 218.701 231.973 218.758 231.177 217.639C230.167 215.757 230.935 213.93 231.175 212.585C231.63 211.588 230.001 209.672 231.418 208.791C227.151 210.969 223.026 208.357 219.074 207.386C216.794 205.902 212.924 205.773 212.156 202.572L212.155 202.559L206.848 197.969C206.848 197.969 205.44 196.233 204.528 196.712C201.83 198.131 198.794 206.707 198.575 205.866C198.357 205.025 198.785 204.063 198.093 203.489C196.705 201.869 197.378 198.798 195.546 197.904C195.103 199.486 196.979 200.219 196.19 201.507C193.96 200.797 191.59 200.017 190.296 197.548C190.497 194.35 188.23 196.828 186.376 195.395C186.073 191.993 181.734 194.514 180.077 192.542L179.942 192.564L170.522 192.691L167.945 191.464C167.708 194.112 168.046 198.038 165.706 198.981C164.358 197.976 161.75 197.528 161.599 195.208C162.218 193.615 163.575 194.553 164.76 194.304C164.517 193.083 164.761 191.804 164.849 190.653C165.156 189.08 162.369 188.182 164.261 186.651C166.017 186.378 166.864 188.271 168.195 189.026L171.535 187.098C170.282 183.994 171.884 178.849 170.449 175.455C169.792 172.707 166.689 173.462 164.355 173.444L164.357 173.47C159.169 175.519 164.78 179.97 164.665 183.229C164.293 185.885 161.412 183.967 159.885 185.251C160.887 189.529 157.179 190.627 154.105 191.604C153.25 194.607 156.696 195.778 155.289 198.673L149.844 201.173C149.681 198.683 155.127 195.775 150.501 193.892C152.105 191.286 150.4 186.054 153.74 185.599C155.482 182.293 155.615 180.569 155.816 177.041C154.096 175.363 154.257 172.799 154.105 170.479C155.992 165.934 156.342 157.909 163.269 157.839C166.512 156.93 162.899 154.678 165.463 153.195C170.309 152.181 171.298 147.681 175.319 145.313C179.234 144.663 179.674 139.278 183.576 138.642L192.188 140.975C195.103 141.312 198.074 142.303 200.36 144.088C201.17 145.431 199.183 145.718 199.076 146.581C201.095 149.081 201.053 145.925 202.95 145.315C204.828 146.903 206.43 148.036 208.836 146.642C210.25 148.655 212.134 146.585 213.748 146.637C214.18 144.898 216.59 143.346 215.431 141.474C216.213 139.87 216.445 137.367 218.619 137.225C217.766 143.809 223.674 136.895 225.71 139.869L234.142 137.779L240.217 139.489C241.792 136.438 244.871 135.54 246.707 132.932C248.499 131.96 248.645 134.201 249.561 134.852C251.133 141.593 243.413 145.19 239.41 148.254L241.176 148.139C245.368 143.365 248.605 153.248 252.927 148.386C253.437 142.601 261.838 142.751 263.291 136.997L270.513 139.777C270.987 140.759 272.253 141.769 272.391 141.365C274.02 139.153 272.32 134 277.2 134.761C282.029 135.999 286.17 135.268 291.414 135.545C294.396 136.903 295.02 140.206 297.76 141.422C298.968 142.581 297.509 143.847 296.931 144.819C297.533 145.274 298.056 145.817 298.483 146.429C299.842 145.103 301.742 143.268 304.506 143.799C307.233 143.779 308.209 147.44 310.725 147.737C311.944 149.052 310.186 150.562 309.176 151.181C309.891 153.766 306.822 154.835 308.124 157.224C309.585 157.445 310.979 156.643 311.484 155.61C316.667 151.39 312.031 146.625 310.923 141.985C308.467 137.802 303.851 137.313 300.053 134.31C300.125 132.91 300.908 131.306 301.99 130.538C301.342 124.368 294.576 120.624 290.791 115.738L290.774 115.686L285.653 111.019L280.699 98.6544Z" fill="white"/>
<path d="M179.942 192.564L181.356 194.578M179.942 192.564L180.077 192.542C181.734 194.514 186.073 191.993 186.376 195.395C188.23 196.828 190.497 194.35 190.296 197.548C191.59 200.017 193.96 200.797 196.19 201.507C196.979 200.219 195.103 199.486 195.546 197.904C197.378 198.798 196.705 201.869 198.093 203.489C198.785 204.063 198.357 205.025 198.575 205.866C198.794 206.707 201.83 198.131 204.528 196.712C205.44 196.233 206.848 197.969 206.848 197.969L212.155 202.559L212.156 202.572C212.924 205.773 216.794 205.902 219.074 207.386C223.095 208.374 227.296 211.061 231.643 208.672C229.84 209.487 231.652 211.54 231.175 212.585C230.935 213.93 230.167 215.757 231.177 217.639C231.973 218.758 232.856 218.701 233.099 219.922C231.914 221.408 229.658 220.304 228.274 221.25C226.97 223.441 227.141 226.062 227.475 228.673L233.761 228.184C237.155 228.344 236.974 224.315 238.65 222.811C240.903 223.046 243.131 218.702 244.798 222.094C248.213 220.476 250.964 228.141 251.612 221.966C253.468 222.384 255.416 225.061 257.138 223C258.599 221.971 257.183 220.352 256.595 219.693C258.416 220.429 260.906 222.834 262.598 220.315C263.366 218.488 264.643 218.405 266.191 217.448L266.176 217.436C268.069 218.01 267.443 220.749 266.881 221.97C264.611 225.448 260.204 228.381 255.765 229.368L267.971 226.335L267.88 224.945C274.861 224.648 281.87 225.836 288.347 227.651C294.465 227.937 293.139 221.206 294.943 217.903C294.663 216.131 294.543 214.283 296.075 213.091C295.986 210.464 295.395 207.686 293.81 205.552C290.959 204.725 287.736 205.948 287.187 208.616C286.675 209.347 286.997 210.511 285.903 211.109C284.398 210.417 281.706 213.488 280.66 211.056C287.446 212.588 284.958 203.721 291.868 205.06C293.554 202.463 295.952 199.898 296.071 196.705C296.32 198.005 296.741 199.452 298.039 199.683C301.664 199.828 300.404 194.093 304.771 196.835L304.934 196.812C308.896 197.106 311.49 194.831 315.264 194.743C315.264 194.743 317.598 194.077 317.359 193.053C317.019 191.6 316.396 189.075 316.396 189.075C315.62 184.296 308.608 183.068 308.454 178.182L304.326 174.108L304.298 174.097L306.278 167.005L308.045 166.89C309.072 165.283 308.763 162.632 309.764 160.618C314.737 161.545 314.841 156.023 317.266 153.456C317.764 149.791 321.67 145.667 317.808 142.102C320.121 138.227 318.516 133.291 316.696 130.066C315.559 128.745 312.069 130.684 312.761 127.69C313.584 126.702 314.829 125.924 314.31 124.246C313.245 122.763 312.15 124.598 310.839 124.157C310.325 122.348 313.715 121.179 311.603 119.764C309.068 116.665 305.325 123.516 304.114 118.541C304.418 115.665 301.379 113.837 298.952 112.205C296.255 112.684 298.338 109.06 296.516 108.323C288.78 105.406 293.81 93.6009 283.874 94.4068C281.798 92.0678 278.932 87.6745 275.461 87.585C274.318 90.147 278.332 91.0303 278.169 93.5416L277.625 93.5771C277.691 94.5977 278.004 95.5883 278.537 96.4698C279.071 97.3513 279.811 98.0994 280.699 98.6544L285.653 111.019L290.774 115.686L290.791 115.738C294.576 120.624 301.342 124.368 301.99 130.538C300.908 131.306 300.125 132.91 300.053 134.31C303.851 137.313 308.468 137.802 310.923 141.985C312.031 146.625 316.667 151.39 311.484 155.61C310.979 156.643 309.585 157.445 308.124 157.224C306.822 154.835 309.891 153.766 309.176 151.181C310.186 150.562 311.944 149.052 310.725 147.737C308.209 147.44 307.233 143.779 304.506 143.799C301.742 143.268 299.842 145.103 298.483 146.429C298.056 145.817 297.532 145.274 296.931 144.819C297.509 143.847 298.968 142.581 297.76 141.422C295.02 140.206 294.396 136.903 291.414 135.545C286.17 135.268 282.029 135.999 277.2 134.761C272.32 134 274.02 139.153 272.391 141.365C272.253 141.769 270.987 140.759 270.513 139.777L263.291 136.997C261.838 142.751 253.437 142.601 252.927 148.386C248.605 153.248 245.368 143.365 241.176 148.139L239.41 148.254C243.413 145.19 251.133 141.593 249.561 134.852C248.645 134.201 248.499 131.96 246.707 132.932C244.871 135.54 241.792 136.438 240.217 139.489L234.142 137.779L225.71 139.869C223.674 136.895 217.766 143.809 218.619 137.225C216.445 137.367 216.213 139.87 215.431 141.474C216.59 143.346 214.18 144.898 213.748 146.637C212.134 146.585 210.25 148.655 208.836 146.642C206.43 148.036 204.828 146.903 202.95 145.315C201.053 145.925 201.095 149.081 199.076 146.581C199.183 145.718 201.17 145.431 200.36 144.088C198.074 142.303 195.103 141.312 192.188 140.975L183.576 138.642C179.674 139.278 179.234 144.663 175.319 145.313C171.298 147.681 170.309 152.181 165.463 153.195C162.899 154.678 166.512 156.93 163.269 157.839C156.342 157.909 155.992 165.934 154.105 170.479C154.257 172.799 154.096 175.363 155.816 177.041C155.615 180.569 155.482 182.293 153.74 185.599C150.4 186.054 152.105 191.286 150.501 193.892C155.127 195.775 149.681 198.683 149.844 201.173L155.289 198.673C156.696 195.778 153.25 194.607 154.105 191.604C157.179 190.627 160.887 189.529 159.885 185.251C161.412 183.967 164.293 185.885 164.665 183.229C164.78 179.97 159.169 175.519 164.357 173.47L164.355 173.444C166.689 173.462 169.792 172.707 170.449 175.455C171.884 178.849 170.282 183.994 171.535 187.098L168.195 189.026C166.864 188.271 166.017 186.378 164.261 186.651C162.369 188.182 165.156 189.08 164.849 190.653C164.761 191.804 164.517 193.083 164.76 194.304C163.575 194.553 162.218 193.615 161.599 195.208C161.75 197.528 164.358 197.976 165.706 198.981C168.046 198.038 167.708 194.112 167.945 191.464L170.522 192.691L179.942 192.564Z" stroke="white" stroke-width="5.73335"/>
<path d="M281.847 230.484C277.867 227.4 272.731 227.735 267.973 226.334L255.767 229.368C255 230.997 255.135 233.068 252.972 233.367C250.936 230.394 245.083 234.592 245.081 229.538C241.763 230.136 238.211 228.815 235.65 231.39C234 231.814 231.873 232.727 230.153 231.049L223.764 235.969C220.181 236.677 217.406 238.489 215.75 241.546C216.864 244.829 211.855 245.853 213.502 248.931C216.241 252.635 218.752 257.67 224.232 258.01L233.442 266.794L240.965 267.698C243.663 270.563 248.645 268.29 252.202 269.69C252.516 271.999 249.815 275.137 252.007 277.784C253.419 281.864 257.721 281.294 260.782 283.885L267.501 290.659C272.775 291.394 276.536 298.44 282.165 295.836C287.562 293.48 290.982 289.754 293.911 285.697L302.58 264.47C303.011 263.337 304.617 262.232 303.409 261.073C299.558 257.679 305.136 254.288 306.537 251.09C305.901 244.683 289.869 245.42 300.22 237.374C300.22 237.374 301.401 233.924 301.517 231.802C301.654 229.288 300.35 225.46 300.35 225.46C299.049 223.926 299.403 220.573 296.801 220.427C295.09 222.645 294.055 225.186 293.829 227.991C290.944 230.417 285.83 229.829 281.847 230.484Z" fill="white" stroke="white" stroke-width="5.73335"/>
<path d="M267.973 226.334C272.731 227.735 277.867 227.4 281.847 230.484C285.83 229.829 290.944 230.417 293.829 227.991C294.055 225.186 295.09 222.645 296.801 220.427C299.403 220.573 299.049 223.926 300.35 225.46C300.35 225.46 301.654 229.288 301.517 231.802C301.401 233.924 300.151 237.068 300.151 237.068L300.164 237.054L300.185 237.369C289.834 245.414 305.901 244.683 306.537 251.09C305.136 254.288 299.558 257.679 303.409 261.073C304.617 262.232 303.011 263.337 302.58 264.47L293.911 285.697C290.982 289.754 287.562 293.48 282.165 295.836C276.536 298.44 272.775 291.394 267.501 290.659L260.782 283.885C257.721 281.294 253.419 281.864 252.007 277.784C249.815 275.137 252.516 271.999 252.202 269.69C248.645 268.29 243.663 270.563 240.965 267.698M230.17 231.05C231.89 232.728 234 231.814 235.65 231.39C238.211 228.815 241.763 230.136 245.081 229.538C245.083 234.592 250.936 230.394 252.972 233.367C255.135 233.068 255 230.997 255.767 229.368M240.979 267.698L240.965 267.698M240.965 267.698L233.442 266.794L224.232 258.01C218.752 257.67 216.241 252.635 213.502 248.931C211.855 245.853 216.864 244.829 215.75 241.546C217.406 238.489 220.181 236.677 223.764 235.969L230.169 231.037" stroke="white" stroke-width="5.73335"/>
<path d="M155.287 198.673C159.38 202.223 162.72 206.572 162.343 211.875C165.308 215.498 164.969 221.18 165.993 226.009C167.26 227.129 168.273 228.49 168.968 230.007C169.664 231.524 170.026 233.165 170.034 234.827C170.313 236.598 168.343 237.346 167.192 238.118C165.863 239.916 168.294 238.902 168.384 240.278L178.083 250.293L179.987 252.275L180.673 252.756L180.659 252.757C180.816 255.156 184.11 255.033 183.023 258.039C178.323 261.294 172.25 259.597 167.748 263.378C163.545 265.89 159.642 261.275 157.265 261.653L147.327 263.038C144.33 261.444 142.27 258.314 139.239 256.195C135.611 255.74 133.003 252.619 131.925 249.772C132.016 250.125 131.516 250.441 131.243 250.755C128.056 252.515 126.739 248.64 124.512 247.548C122.435 246.67 123.751 242.162 120.324 244.004C118.106 240.964 114.358 241.445 112.689 237.829L111.356 240.193C108.765 240.204 106.666 237.314 105.111 235.862C99.913 237.754 101.541 230.501 98.4281 228.375C97.0081 223.966 98.1944 219.769 100.359 216.14C101.872 214.646 104.986 215.523 105.622 216.495C108.405 217.327 106.531 214.329 107.938 213.711C111.576 210.289 113.792 214.567 116.109 216.824L123.849 217.715C125.071 216.779 124.055 214.595 125.822 214.48C126.057 209.726 126.438 204.266 129.372 199.876C133.927 199.421 133.702 193.46 138.618 193.521C139.801 194.3 141.462 195.284 142.042 196.641L149.842 201.173L155.287 198.673Z" fill="white" stroke="white" stroke-width="5.73335"/>
<path d="M298.861 67.8964C297.137 63.4286 292.563 66.5171 289.654 63.7586C284.267 67.6388 278.867 65.6759 273.348 63.1899L275.434 72.517C281.485 74.9126 279.856 81.3101 284.42 84.3554C286.195 86.872 283.151 89.5712 286.339 91.6007C286.395 93.7029 287.714 96.5651 290.32 94.6841C291.527 93.5262 293.207 92.0873 295.121 92.9759C298.637 95.221 299.154 99.3727 299.534 102.691C300.458 105.566 302.442 106.7 305.104 107.763C309.931 106.448 308.546 113.672 313.59 113.185C315.991 114.437 318.148 116.534 321.028 116.346C324.65 118.742 326.905 122.557 329.598 125.566C331.43 126.46 333.201 125.16 334.77 124.531L341.313 118.156C340.936 112.363 335.544 109.608 333.225 105.021C327.574 100.81 324.268 94.879 317.654 90.967C316.32 90.1853 316.746 87.9201 314.735 88.0512L312.124 81.0748C310.836 78.6844 307.528 77.3471 307.637 73.9969C304.918 71.8447 302.67 68.3455 298.861 67.8964Z" fill="white"/>
<path d="M312.124 81.0748C310.836 78.6844 307.528 77.3471 307.637 73.9969C304.918 71.8447 302.67 68.3455 298.861 67.8964C297.137 63.4286 292.563 66.5171 289.654 63.7586C284.267 67.6388 278.867 65.6759 273.348 63.1899L275.434 72.517C281.485 74.9126 279.856 81.3101 284.42 84.3554C286.195 86.872 283.151 89.5712 286.339 91.6007C286.395 93.7029 287.714 96.5651 290.32 94.6841C291.527 93.5262 293.207 92.0873 295.121 92.9759C298.637 95.221 299.154 99.3727 299.534 102.691C300.458 105.566 302.442 106.7 305.104 107.763C309.931 106.448 308.546 113.672 313.59 113.185C315.991 114.437 318.148 116.534 321.028 116.346C324.65 118.742 326.905 122.557 329.598 125.566C331.43 126.46 333.201 125.16 334.77 124.531L341.313 118.156C340.936 112.363 335.544 109.608 333.225 105.021C327.574 100.81 324.268 94.879 317.654 90.967C316.32 90.1853 316.746 87.9201 314.735 88.0512L312.124 81.0748ZM312.124 81.0748L312.098 80.6816" stroke="white" stroke-width="5.73335"/>
<path d="M224.678 151.505L225.107 151.793C225.651 153.863 227.459 156.904 225.54 158.437C223.175 161.935 216.879 161.634 216.384 166.181C209.772 168.56 212.863 176.413 211.031 181.6C206.749 182.893 208.051 177.754 205.929 176.181L204.964 177.481C197.852 173.049 199.96 183.401 195.88 184.654C200.511 185.366 204.271 182.554 208.921 182.093C209.281 182.596 210.417 182.851 210.078 183.728L210.799 183.682C211.779 182.604 211.781 181.38 211.608 179.983C211.925 178.567 213.637 177.613 214.969 178.369C214.651 179.785 215.674 180.823 216.937 181.347L214.667 184.838C213.481 186.31 215.331 189.993 211.952 190.069C211.242 190.273 210.649 189.759 210.835 189.049L210.115 189.096L212.083 192.074C214.083 191.785 213.449 188.339 215.991 187.778C218.267 187.103 218.366 184.438 217.959 182.385C220.841 179.697 224.633 180.937 227.964 180.338C228.903 181.132 230.915 181.238 230.621 182.797C232.061 185.204 230.08 188.097 228.614 190.298C229.424 191.641 227.73 192.857 227.83 194.39C225.293 197.346 222.156 196.313 218.475 197.408C223.242 200.204 228.341 201.819 234.33 200.955C240.13 200.971 236.94 194.112 240.95 191.573C243.416 191.097 245.536 191.59 248.302 190.699C249.293 188.529 249.282 186.055 249.615 183.638C247.058 182.712 247.785 180.256 247.496 178.34C245.945 176.731 245.911 173.706 242.997 173.58C242.352 172.069 243.979 171.278 243.806 169.881C248.053 168.051 241.234 166.008 243.786 163.302C238.839 162.769 237.223 155.346 231.306 158.14C229.739 156.295 225.907 155.702 225.715 152.753C225.986 150.63 230.934 151.176 230.378 151.436C230.026 151.064 229.449 150.799 229.577 150.251C227.719 150.214 225.569 150.512 224.419 151.509L224.678 151.505ZM266.343 197.643C263.418 202.177 269.649 201.468 270.293 205.072C271.013 205.025 271.917 205.282 272.284 204.626C271.775 203.106 271.751 201.476 270.235 200.417C267.835 200.652 267.634 197.559 266.37 197.641L266.343 197.643ZM257.792 214.653C259.413 212.31 263.11 212.516 263.678 209.926C260.437 209.61 256.996 212.072 257.792 214.653Z" fill="white" stroke="white" stroke-width="5.73335"/>
<path d="M234.876 49.4573L244.91 44.3017L244.923 44.2877C249.276 44.7146 255.06 44.4822 256.941 48.637C251.885 54.7973 243.815 50.7433 237.502 53.9452C234.995 53.7928 232.907 52.5338 230.816 51.433C230.067 48.5337 233.782 50.055 234.876 49.4573Z" fill="white" stroke="white" stroke-width="5.73335"/>
<path d="M280.699 98.6544C279.811 98.0994 279.071 97.3513 278.537 96.4698C278.004 95.5883 277.691 94.5977 277.625 93.5771L278.169 93.5416C278.332 91.0303 274.318 90.147 275.461 87.585C278.932 87.6745 281.798 92.0678 283.874 94.4068C293.81 93.6009 288.78 105.406 296.516 108.323C298.338 109.06 296.255 112.684 298.952 112.205C301.379 113.837 304.418 115.665 304.114 118.541C305.325 123.516 309.068 116.665 311.603 119.764C313.715 121.179 310.325 122.348 310.839 124.157C312.15 124.598 313.245 122.763 314.31 124.246C314.829 125.924 313.584 126.702 312.761 127.69C312.069 130.684 315.559 128.745 316.696 130.066C318.516 133.291 320.121 138.227 317.808 142.102C321.67 145.667 317.764 149.791 317.266 153.456C314.841 156.023 314.737 161.545 309.764 160.618C308.763 162.632 309.072 165.283 308.045 166.89L306.278 167.005L304.298 174.097L304.326 174.108L308.454 178.182C308.608 183.068 315.62 184.296 316.396 189.075C316.396 189.075 317.019 191.6 317.359 193.053C317.598 194.077 315.264 194.743 315.264 194.743C311.49 194.831 308.896 197.106 304.934 196.812L304.771 196.835C300.404 194.093 301.664 199.828 298.039 199.683C296.741 199.452 296.32 198.005 296.071 196.705C295.952 199.898 293.554 202.463 291.868 205.06C284.958 203.721 287.446 212.588 280.66 211.056C281.706 213.488 284.398 210.417 285.903 211.109C286.997 210.511 286.676 209.347 287.187 208.616C287.736 205.948 290.959 204.725 293.81 205.552C295.395 207.686 295.986 210.464 296.075 213.091C294.543 214.283 294.663 216.131 294.943 217.903C293.139 221.206 294.465 227.937 288.347 227.651C281.87 225.836 274.861 224.648 267.88 224.945L267.971 226.335L256.563 229.17C256.298 229.243 256.032 229.309 255.765 229.368L256.563 229.17C260.725 228.027 264.747 225.24 266.881 221.97C267.443 220.749 268.069 218.01 266.176 217.436L266.191 217.448C264.643 218.405 263.366 218.488 262.598 220.315C260.906 222.834 258.416 220.429 256.595 219.693C257.183 220.352 258.599 221.971 257.138 223C255.416 225.061 253.468 222.384 251.612 221.966C250.964 228.141 248.213 220.476 244.798 222.094C243.131 218.702 240.903 223.046 238.65 222.811C236.974 224.315 237.155 228.344 233.761 228.184L227.475 228.673C227.141 226.062 226.97 223.441 228.274 221.25C229.658 220.304 231.914 221.408 233.099 219.922C232.856 218.701 231.973 218.758 231.177 217.639C230.167 215.757 230.935 213.93 231.175 212.585C231.63 211.588 230.001 209.672 231.418 208.791C227.151 210.969 223.026 208.357 219.074 207.386C216.794 205.902 212.924 205.773 212.156 202.572L212.155 202.559L206.848 197.969C206.848 197.969 205.44 196.233 204.528 196.712C201.83 198.131 198.794 206.707 198.575 205.866C198.357 205.025 198.785 204.063 198.093 203.489C196.705 201.869 197.378 198.798 195.546 197.904C195.103 199.486 196.979 200.219 196.19 201.507C193.96 200.797 191.59 200.017 190.296 197.548C190.497 194.35 188.23 196.828 186.376 195.395C186.073 191.993 181.734 194.514 180.077 192.542L179.942 192.564L170.522 192.691L167.945 191.464C167.708 194.112 168.046 198.038 165.706 198.981C164.358 197.976 161.75 197.528 161.599 195.208C162.218 193.615 163.575 194.553 164.76 194.304C164.517 193.083 164.761 191.804 164.849 190.653C165.156 189.08 162.369 188.182 164.261 186.651C166.017 186.378 166.864 188.271 168.195 189.026L171.535 187.098C170.282 183.994 171.884 178.849 170.449 175.455C169.792 172.707 166.689 173.462 164.355 173.444L164.357 173.47C159.169 175.519 164.78 179.97 164.665 183.229C164.293 185.885 161.412 183.967 159.885 185.251C160.887 189.529 157.179 190.627 154.105 191.604C153.25 194.607 156.696 195.778 155.289 198.673L149.844 201.173C149.681 198.683 155.127 195.775 150.501 193.892C152.105 191.286 150.4 186.054 153.74 185.599C155.482 182.293 155.615 180.569 155.816 177.041C154.096 175.363 154.257 172.799 154.105 170.479C155.992 165.934 156.342 157.909 163.269 157.839C166.512 156.93 162.899 154.678 165.463 153.195C170.309 152.181 171.298 147.681 175.319 145.313C179.234 144.663 179.674 139.278 183.576 138.642L192.188 140.975C195.103 141.312 198.074 142.303 200.36 144.088C201.17 145.431 199.183 145.718 199.076 146.581C201.095 149.081 201.053 145.925 202.95 145.315C204.828 146.903 206.43 148.036 208.836 146.642C210.25 148.655 212.134 146.585 213.748 146.637C214.18 144.898 216.59 143.346 215.431 141.474C216.213 139.87 216.445 137.367 218.619 137.225C217.766 143.809 223.674 136.895 225.71 139.869L234.142 137.779L240.217 139.489C241.792 136.438 244.871 135.54 246.707 132.932C248.499 131.96 248.645 134.201 249.561 134.852C251.133 141.593 243.413 145.19 239.41 148.254L241.176 148.139C245.368 143.365 248.605 153.248 252.927 148.386C253.437 142.601 261.838 142.751 263.291 136.997L270.513 139.777C270.987 140.759 272.253 141.769 272.391 141.365C274.02 139.153 272.32 134 277.2 134.761C282.029 135.999 286.17 135.268 291.414 135.545C294.396 136.903 295.02 140.206 297.76 141.422C298.968 142.581 297.509 143.847 296.931 144.819C297.533 145.274 298.056 145.817 298.483 146.429C299.842 145.103 301.742 143.268 304.506 143.799C307.233 143.779 308.209 147.44 310.725 147.737C311.944 149.052 310.186 150.562 309.176 151.181C309.891 153.766 306.822 154.835 308.124 157.224C309.585 157.445 310.979 156.643 311.484 155.61C316.667 151.39 312.031 146.625 310.923 141.985C308.467 137.802 303.851 137.313 300.053 134.31C300.125 132.91 300.908 131.306 301.99 130.538C301.342 124.368 294.576 120.624 290.791 115.738L290.774 115.686L285.653 111.019L280.699 98.6544Z" fill="#09A085"/>
<path d="M281.847 230.484C277.867 227.4 272.731 227.735 267.973 226.334L255.767 229.368C255 230.997 255.135 233.068 252.972 233.367C250.936 230.394 245.083 234.592 245.081 229.538C241.763 230.136 238.211 228.815 235.65 231.39C234 231.814 231.873 232.727 230.153 231.049L223.764 235.969C220.181 236.677 217.406 238.489 215.75 241.546C216.864 244.829 211.855 245.853 213.502 248.931C216.241 252.635 218.752 257.67 224.232 258.01L233.442 266.794L240.965 267.698C243.663 270.563 248.645 268.29 252.202 269.69C252.516 271.999 249.815 275.137 252.007 277.784C253.419 281.864 257.721 281.294 260.782 283.885L267.501 290.659C272.775 291.394 276.536 298.44 282.165 295.836C287.562 293.48 290.982 289.754 293.911 285.697L302.58 264.47C303.011 263.337 304.617 262.232 303.409 261.073C299.558 257.679 305.136 254.288 306.537 251.09C305.901 244.683 289.869 245.42 300.22 237.374C300.22 237.374 301.401 233.924 301.517 231.802C301.654 229.288 300.35 225.46 300.35 225.46C299.049 223.926 299.403 220.573 296.801 220.427C295.09 222.645 294.055 225.186 293.829 227.991C290.944 230.417 285.83 229.829 281.847 230.484Z" fill="#09A085"/>
<path d="M155.287 198.673C159.38 202.223 162.72 206.572 162.343 211.875C165.308 215.498 164.969 221.18 165.993 226.009C167.26 227.129 168.273 228.49 168.968 230.007C169.664 231.524 170.026 233.165 170.034 234.827C170.313 236.598 168.343 237.346 167.192 238.118C165.863 239.916 168.294 238.902 168.384 240.278L178.083 250.293L179.987 252.275L180.673 252.756L180.659 252.757C180.816 255.156 184.11 255.033 183.023 258.039C178.323 261.294 172.25 259.597 167.748 263.378C163.545 265.89 159.642 261.275 157.265 261.653L147.327 263.038C144.33 261.444 142.27 258.314 139.239 256.195C135.611 255.74 133.003 252.619 131.925 249.772C132.016 250.125 131.516 250.441 131.243 250.755C128.056 252.515 126.739 248.64 124.512 247.548C122.435 246.67 123.751 242.162 120.324 244.004C118.106 240.964 114.358 241.445 112.689 237.829L111.356 240.193C108.765 240.204 106.666 237.314 105.111 235.862C99.913 237.754 101.541 230.501 98.4281 228.375C97.0081 223.966 98.1944 219.769 100.359 216.14C101.872 214.646 104.986 215.523 105.622 216.495C108.405 217.327 106.531 214.329 107.938 213.711C111.576 210.289 113.792 214.567 116.109 216.824L123.849 217.715C125.071 216.779 124.055 214.595 125.822 214.48C126.057 209.726 126.438 204.266 129.372 199.876C133.927 199.421 133.702 193.46 138.618 193.521C139.801 194.3 141.462 195.284 142.042 196.641L149.842 201.173L155.287 198.673Z" fill="#09A085"/>
<path d="M298.861 67.8964C297.137 63.4286 292.563 66.5171 289.654 63.7586C284.267 67.6388 278.867 65.6759 273.348 63.1899L275.434 72.517C281.485 74.9126 279.856 81.3101 284.42 84.3554C286.195 86.872 283.151 89.5712 286.339 91.6007C286.395 93.7029 287.714 96.5651 290.32 94.6841C291.527 93.5262 293.207 92.0873 295.121 92.9759C298.637 95.221 299.154 99.3727 299.534 102.691C300.458 105.566 302.442 106.7 305.104 107.763C309.931 106.448 308.546 113.672 313.59 113.185C315.991 114.437 318.148 116.534 321.028 116.346C324.65 118.742 326.905 122.557 329.598 125.566C331.43 126.46 333.201 125.16 334.77 124.531L341.313 118.156C340.936 112.363 335.544 109.608 333.225 105.021C327.574 100.81 324.268 94.879 317.654 90.967C316.32 90.1853 316.746 87.9201 314.735 88.0512L312.124 81.0748C310.836 78.6844 307.528 77.3471 307.637 73.9969C304.918 71.8447 302.67 68.3455 298.861 67.8964Z" fill="#09A085"/>
<path d="M224.678 151.505L225.107 151.793C225.651 153.863 227.459 156.904 225.54 158.437C223.175 161.935 216.879 161.634 216.384 166.181C209.772 168.56 212.863 176.413 211.031 181.6C206.749 182.893 208.051 177.754 205.929 176.181L204.964 177.481C197.852 173.049 199.96 183.401 195.88 184.654C200.511 185.366 204.271 182.554 208.921 182.093C209.281 182.596 210.417 182.851 210.078 183.728L210.799 183.682C211.779 182.604 211.781 181.38 211.608 179.983C211.925 178.567 213.637 177.613 214.969 178.369C214.651 179.785 215.674 180.823 216.937 181.347L214.667 184.838C213.481 186.31 215.331 189.993 211.952 190.069C211.242 190.273 210.649 189.759 210.835 189.049L210.115 189.096L212.083 192.074C214.083 191.785 213.449 188.339 215.991 187.778C218.267 187.103 218.366 184.438 217.959 182.385C220.841 179.697 224.633 180.937 227.964 180.338C228.903 181.132 230.915 181.238 230.621 182.797C232.061 185.204 230.08 188.097 228.614 190.298C229.424 191.641 227.73 192.857 227.83 194.39C225.293 197.346 222.156 196.313 218.475 197.408C223.242 200.204 228.341 201.819 234.33 200.955C240.13 200.971 236.94 194.112 240.95 191.573C243.416 191.097 245.536 191.59 248.302 190.699C249.293 188.529 249.282 186.055 249.615 183.638C247.058 182.712 247.785 180.256 247.496 178.34C245.945 176.731 245.911 173.706 242.997 173.58C242.352 172.069 243.979 171.278 243.806 169.881C248.053 168.051 241.234 166.008 243.786 163.302C238.839 162.769 237.223 155.346 231.306 158.14C229.739 156.295 225.907 155.702 225.715 152.753C225.986 150.63 230.934 151.176 230.378 151.436C230.026 151.064 229.449 150.799 229.577 150.251C227.719 150.214 225.569 150.512 224.419 151.509L224.678 151.505ZM266.343 197.643C263.418 202.177 269.649 201.468 270.293 205.072C271.013 205.025 271.917 205.282 272.284 204.626C271.775 203.106 271.751 201.476 270.235 200.417C267.835 200.652 267.634 197.559 266.37 197.641L266.343 197.643ZM257.792 214.653C259.413 212.31 263.11 212.516 263.678 209.926C260.437 209.61 256.996 212.072 257.792 214.653Z" fill="white"/>
<path d="M234.876 49.4573L244.91 44.3017L244.923 44.2877C249.276 44.7146 255.06 44.4822 256.941 48.637C251.885 54.7973 243.815 50.7433 237.502 53.9452C234.995 53.7928 232.907 52.5338 230.816 51.433C230.067 48.5337 233.782 50.055 234.876 49.4573Z" fill="#09A085"/>
<path d="M108.241 29.2402C92.0008 35.574 74.5823 42.0347 64.0474 58.6966C57.8812 68.4368 56.987 79.9836 52.1274 90.0485C61.1214 81.5939 71.5777 75.3597 79.1971 65.2856C88.3587 53.1784 96.3119 39.707 108.241 29.2402ZM349.567 29.2402C361.487 39.707 369.451 53.1784 378.611 65.2843C386.23 75.3597 396.688 81.5939 405.682 90.0485C400.821 79.9836 399.928 68.4368 393.762 58.6966C383.226 42.0347 365.798 35.5727 349.567 29.2402ZM64.4493 51.3325C56.1727 53.4533 49.221 58.8144 43.0156 65.6875C30.0443 80.0727 31.1637 101.301 32.8918 120.241C33.4324 126.083 33.1379 131.071 32.4794 137.061C36.4069 129.009 42.8388 121.33 50.3993 115.617C67.2771 102.872 85.756 86.3855 86.0113 64.7161C80.4251 80.3083 63.4281 86.7691 52.1274 97.4323C46.1471 103.068 41.5624 109.852 38.8917 116.902L38.4793 116.579C39.8827 110.343 42.5338 104.679 44.3313 98.6498C49.2498 82.1346 48.3766 62.3884 64.4493 51.3325ZM393.359 51.3325C409.433 62.3884 408.558 82.1333 413.478 98.6485C415.274 104.677 417.916 110.343 419.33 116.578L418.918 116.902C416.247 109.852 411.661 103.067 405.682 97.431C394.38 86.7678 377.384 80.307 371.797 64.7148C372.052 86.3855 390.522 102.871 407.399 115.615C414.97 121.33 421.401 129.008 425.328 137.06C424.671 131.07 424.377 126.082 424.907 120.241C426.644 101.3 427.764 80.0714 414.794 65.6875C408.588 58.8144 401.636 53.4533 393.359 51.3325ZM30.153 80.8673C29.7406 80.7888 29.5049 81.1135 29.1802 81.2797C17.9777 95.5654 10.5049 111.217 10.5049 130.393C10.5049 154.096 24.1334 170.631 25.8327 192.889C29.3374 169.668 48.8374 153.173 58.9311 132.739C62.8691 124.766 65.3133 115.783 66.4039 107.014C64.9023 110.858 62.5685 114.322 59.57 117.158C46.4521 129.597 30.9974 141.852 28.0216 159.457C27.6001 161.97 27.3841 164.563 26.647 166.998C26.0775 167.244 26.0775 166.596 25.8327 166.428L27.4626 144.591C29.0533 123.313 17.8206 99.6304 30.153 80.8673ZM427.646 80.8673C439.989 99.6304 428.756 123.313 430.347 144.591L431.966 166.428C431.73 166.596 431.73 167.244 431.152 166.998C430.425 164.563 430.209 161.97 429.786 159.457C426.812 141.852 411.347 129.599 398.239 117.158C395.241 114.322 392.907 110.859 391.405 107.015C392.495 115.783 394.94 124.768 398.877 132.741C408.97 153.173 428.461 169.668 431.966 192.89C433.674 170.631 447.303 154.096 447.303 130.393C447.303 111.218 439.831 95.5667 428.628 81.2797C428.304 81.1135 428.069 80.7888 427.646 80.8673ZM6.22397 139.957C3.61218 145.464 2.55174 151.67 1.17711 157.661C-1.73841 173.164 1.17709 189.62 5.39 203.866C10.6529 221.688 28.1106 234.442 36.9567 250.771L38.1651 251.744C36.8782 242.877 36.221 233.333 38.7241 224.869C42.5442 211.33 47.3358 198.173 49.8586 184.132C51.8132 173.233 54.061 160.999 52.7754 150.434C51.3118 156.129 49.8101 161.754 46.6878 166.596C34.8071 184.986 22.6122 206.558 30.928 229.897C30.7421 230.152 30.4672 230.477 30.153 230.309C26.8146 222.592 26.0684 213.814 23.8978 205.546C18.144 183.621 1.28578 165.309 6.22397 139.957ZM451.584 139.957C456.523 165.309 439.664 183.62 433.901 205.546C431.73 213.814 430.995 222.592 427.646 230.309C427.342 230.477 427.067 230.152 426.871 229.897C435.197 206.558 423.002 184.986 411.121 166.596C407.999 161.754 406.487 156.129 405.034 150.434C403.747 160.999 405.996 173.233 407.949 184.132C410.463 198.173 415.265 211.33 419.084 224.869C421.588 233.333 420.93 242.877 419.644 251.743L420.851 250.771C429.699 234.442 447.146 221.688 452.419 203.866C456.631 189.62 459.548 173.164 456.631 157.659C455.247 151.67 454.196 145.464 451.584 139.957ZM49.9961 203.063C52.1955 217.496 46.4718 230.241 45.1456 243.968C44.0563 255.24 46.0293 266.208 50.4085 275.682C51.7045 278.49 54.061 281.034 54.7195 283.891C50.487 280.081 47.4929 275.211 44.5761 270.489C30.9385 248.406 2.32657 234.051 0.382449 207.177C-0.599429 219.126 0.430889 231.803 4.41731 242.427C9.9551 257.164 20.5986 268.495 32.8629 278.157C45.5488 288.152 60.6893 295.959 72.2362 304.746C69.9583 298.992 66.2664 293.681 64.7635 287.613C57.9597 260.169 61.7589 228.445 49.9961 203.063ZM407.803 203.063C396.049 228.445 399.839 260.169 393.044 287.613C391.543 293.681 387.851 298.992 385.573 304.746C397.12 295.959 412.26 288.152 424.946 278.157C437.209 268.495 447.853 257.164 453.381 242.427C457.368 231.803 458.409 219.126 457.427 207.177C455.483 234.051 426.871 248.406 413.232 270.489C410.316 275.211 407.321 280.081 403.09 283.891C403.747 281.034 406.103 278.49 407.399 275.682C411.769 266.208 413.753 255.24 412.662 243.968C411.327 230.241 405.612 217.496 407.803 203.063ZM64.7635 249.073C74.6805 268.888 70.3995 294.436 83.2621 313.122C87.2786 318.963 92.9041 324.56 98.0989 329.264L97.8527 329.509C93.1502 327.32 88.9085 324.04 84.6275 320.486C62.1229 301.771 28.2769 299.385 14.8056 268.888C18.4582 291.274 36.2406 311.108 55.4265 323.676C73.6698 335.626 97.0581 334.3 117.324 340.988C98.599 325.876 95.762 303.194 87.4056 283.321C82.2213 270.969 73.768 259.854 64.7635 249.073ZM393.044 249.073C384.031 259.854 375.587 270.969 370.393 283.321C362.047 303.194 359.209 325.876 340.485 340.988C360.751 334.3 384.129 335.626 402.383 323.676C421.569 311.108 439.341 291.274 443.002 268.888C429.531 299.385 395.676 301.771 373.182 320.486C368.901 324.04 364.659 327.32 359.955 329.509L359.71 329.264C364.904 324.56 370.52 318.963 374.546 313.122C387.408 294.436 383.127 268.888 393.044 249.073ZM97.1366 297.373C109.38 313.848 112.866 337.787 135.243 346.211C139.2 347.704 143.746 347.948 147.173 350.129C142.862 350.787 139.092 349.451 135.076 348.598C106.248 342.46 71.0279 350.365 49.4266 325.788C57.6259 341.852 74.5037 354.528 90.7243 359.879C115.851 368.176 142.048 358.926 165.661 353.065C169.069 352.22 173.202 352.495 176.354 351.337C163.206 348.666 150.531 344.679 140.348 335.371C125.729 321.998 112.777 307.761 97.1366 297.373ZM360.662 297.373C345.031 307.761 332.08 321.998 317.45 335.371C307.278 344.679 294.601 348.666 281.444 351.337C284.606 352.495 288.74 352.22 292.147 353.065C315.761 358.927 341.947 368.176 367.084 359.879C383.304 354.527 400.183 341.852 408.381 325.788C386.78 350.364 351.561 342.46 322.722 348.596C318.716 349.451 314.946 350.787 310.636 350.128C314.062 347.948 318.609 347.704 322.565 346.211C344.943 337.787 348.428 313.848 360.662 297.373ZM205.152 350.708C183.021 350.708 163.256 361.401 143.835 369.453C126.268 376.747 102.969 375.305 87.4056 364.572C95.1035 374.234 105.413 380.184 116.048 384.22C135.812 392.104 158.886 386.056 175.706 375.305C187.823 367.557 198.211 356.58 212.634 356.58C215.187 356.58 217.75 356.874 220.323 357.414C223.138 356.282 226.002 355.273 228.905 354.389C221.157 352.053 213.204 350.708 205.152 350.708ZM228.905 354.389C231.808 355.273 234.671 356.282 237.486 357.414C240.059 356.873 242.621 356.578 245.174 356.578C259.598 356.578 269.986 367.556 282.103 375.303C298.922 386.054 321.996 392.103 341.762 384.219C352.395 380.183 362.695 374.233 370.393 364.571C354.84 375.303 331.53 376.746 313.964 369.452C294.553 361.4 274.787 350.707 252.656 350.707C244.604 350.707 236.651 352.053 228.905 354.389ZM237.486 357.414C234.639 358.012 231.772 358.915 228.905 360.094C247.02 367.497 265.195 385.436 281.219 402C284.449 399.397 287.876 396.571 290.517 393.547C276.153 379.82 257.732 365.533 237.486 357.414ZM228.905 360.094C226.037 358.915 223.17 358.012 220.323 357.414C200.066 365.533 181.657 379.82 167.291 393.547C169.933 396.571 173.359 399.399 176.58 402C192.614 385.436 210.788 367.497 228.905 360.094Z" fill="#09A085"/>
</svg>
